<?xml version="1.0" standalone="no"?>
<!DOCTYPE svg PUBLIC "-//W3C//DTD SVG 1.1//EN" "http://www.w3.org/Graphics/SVG/1.1/DTD/svg11.dtd" >
<svg xmlns="http://www.w3.org/2000/svg" xmlns:xlink="http://www.w3.org/1999/xlink" version="1.1">
<metadata></metadata>
<defs>
<font id="yalenewregular" horiz-adv-x="1159" >
<font-face units-per-em="2048" ascent="1491" descent="-557" />
<missing-glyph horiz-adv-x="471" />
<glyph unicode="&#xfb01;" horiz-adv-x="1134" d="M43 778v51l156 43q8 188 63 287q79 141 201.5 219t261.5 78q87 0 152 -40t65 -77q-6 -29 -34.5 -64t-55.5 -42q-50 32 -82.5 51.5t-88.5 42t-99 25.5q-74 -3 -120 -47t-71.5 -151t-28.5 -288h426l136 45h28v-800q18 -32 41.5 -43.5t96.5 -18.5v-49h-431v49q69 6 93 19 t41 43l2 587q0 35 -35.5 59.5t-91.5 24.5h-308l7 -653q7 -13 15 -24t18.5 -18.5t17.5 -13.5t21 -9.5t20 -6t23 -3.5t21.5 -1.5t24 -1t23.5 -0.5v-51h-485v47q67 4 93.5 18t41.5 44l2 669h-160z" />
<glyph unicode="&#xfb02;" horiz-adv-x="1144" d="M43 778v51l156 43q10 205 75 308q79 127 197.5 202.5t243.5 75.5q36 0 84 -13.5t67 -31.5l97 33h30v-29l-32 -63v-1245q15 -31 43 -43t104 -19v-47h-453v49q69 4 98 18t44 42v1173q-25 22 -45.5 36t-67 28t-104.5 14q-212 0 -215 -500h268v-86h-271l7 -645 q7 -13 14.5 -24t17.5 -19t15 -13.5t18.5 -9t17.5 -6t20.5 -3.5t19.5 -1.5t24 -1t23 -0.5v-51h-471v47q66 4 92.5 19.5t42.5 46.5l2 665h-162z" />
<glyph unicode="&#xfb03;" horiz-adv-x="1734" d="M43 778v51l156 43q6 167 47 248q32 65 74 118.5t98 97.5t128.5 69t155.5 25q136 0 250 -140q157 166 373 166q87 0 152 -40t65 -77q-6 -29 -34.5 -64t-55.5 -42q-50 32 -82.5 51.5t-88.5 42t-99 25.5q-74 -3 -119.5 -47t-71 -151t-28.5 -288h423l138 45h28v-800 q18 -32 41.5 -43.5t96.5 -18.5v-49h-430v49q69 6 92.5 18.5t40.5 43.5l2 575q0 40 -36.5 68t-101.5 28h-296l6 -653q7 -13 15 -24t18.5 -18.5t17.5 -13.5t21 -9.5t20 -6t23 -3.5t21.5 -1.5t24 -1t23.5 -0.5v-51h-485v47q67 4 93.5 18t41.5 44l2 673h-443l7 -653 q8 -15 19 -27t19.5 -19.5t24 -13.5t22.5 -9t26.5 -5t24 -2.5t26 -1t22.5 -0.5v-51h-502v47q70 4 104 19t48 43l2 669h-160zM362 866h439q9 203 61 303q-142 164 -287 162q-110 -3 -158.5 -107t-54.5 -358z" />
<glyph unicode="&#xfb04;" horiz-adv-x="1742" d="M43 778v51l156 43q6 164 47 248q65 136 180 223t276 87q136 0 250 -140q155 168 361 168q36 0 84 -13.5t67 -31.5l97 33h30v-29l-32 -63v-1245q15 -31 43 -43t104 -19v-47h-453v49q69 4 98 18t44 42v1173q-25 22 -45.5 36t-67 28t-104.5 14q-212 0 -215 -500h270v-86 h-272l6 -645q7 -13 14.5 -24t17.5 -19t15 -13.5t18.5 -9t17.5 -6t20.5 -3.5t19.5 -1.5t24 -1t23 -0.5v-51h-471v47q67 4 93.5 18t41.5 44v665h-441l7 -645q8 -15 19 -27t19.5 -19.5t24 -13.5t22.5 -9t26.5 -5t24 -2.5t26 -1t22.5 -0.5v-51h-502v47q70 4 104 19t48 43l2 669 h-160zM362 860h439q10 218 61 309q-142 164 -287 162q-74 -2 -118.5 -47t-67.5 -146.5t-27 -277.5z" />
<glyph horiz-adv-x="0" />
<glyph horiz-adv-x="682" />
<glyph unicode=" "  horiz-adv-x="471" />
<glyph unicode="&#x09;" horiz-adv-x="471" />
<glyph unicode="&#xa0;" horiz-adv-x="471" />
<glyph unicode="!" horiz-adv-x="700" d="M250 92q0 45 35 79t84 34q50 0 84 -34t34 -79t-34 -78.5t-84 -33.5q-49 0 -84 33.5t-35 78.5zM256 1323h227l-86 -967h-53z" />
<glyph unicode="&#x22;" horiz-adv-x="843" d="M139 1403h221l-88 -535h-45zM489 1403h222l-88 -535h-45z" />
<glyph unicode="#" horiz-adv-x="1331" d="M115 342l41 113h278l80 223h-278l40 113h277l121 346h80l-125 -346h233l121 346h80l-125 -346h281l-41 -113h-279l-80 -223h281l-41 -113h-279l-118 -342h-80l123 342h-234l-119 -342h-80l123 342h-280zM510 455h233l80 223h-233z" />
<glyph unicode="$" d="M123 379h41q19 -70 58.5 -136t96.5 -108q113 -80 248 -80v504q-210 73 -299.5 156t-89.5 213q0 145 108.5 245.5t280.5 122.5v150h72v-146h37q166 0 307 -59v-309h-39q-31 180 -123 237q-25 17 -78 39t-104 25v-504q96 -36 163 -69.5t121.5 -76.5t81.5 -97t27 -121 q0 -155 -107.5 -253t-285.5 -120v-211h-72v209h-18q-215 0 -393 76zM338 1024q0 -47 8 -80t32 -67t70 -65t119 -64v483q-110 -11 -169.5 -72t-59.5 -135zM639 57q115 14 174 74.5t59 144.5q0 94 -54.5 153t-178.5 112v-484z" />
<glyph unicode="%" horiz-adv-x="1632" d="M74 969q0 152 97 256t241 104q143 0 226 -102t83 -260q0 -149 -95.5 -255t-236.5 -106t-228 102t-87 261zM229 989q0 -145 47.5 -235t131.5 -90q66 0 111.5 77t45.5 205q0 152 -47 239t-135 87q-59 0 -106.5 -81t-47.5 -202zM342 -18l854 1339h107l-859 -1339h-102z M920 344q0 152 96.5 256.5t240.5 104.5q143 0 226.5 -102.5t83.5 -260.5q0 -149 -95.5 -254.5t-236.5 -105.5t-228 102t-87 260zM1075 365q0 -145 47 -235.5t131 -90.5q66 0 112 77.5t46 205.5q0 152 -47 238.5t-135 86.5q-59 0 -106.5 -80.5t-47.5 -201.5z" />
<glyph unicode="&#x26;" horiz-adv-x="1394" d="M43 338q0 65 20.5 122.5t51 97t77 76.5t86 59t91.5 46q-146 135 -146 252q0 115 86.5 193t204.5 78q135 0 203.5 -62t68.5 -160q0 -96 -53.5 -157t-157.5 -115q102 -81 166 -150t156 -185q4 -6 7 -9.5t7 -8.5t7 -9q73 114 123 202.5t96 200.5q10 24 -26 65t-95 60l12 45 l404 -96l-9 -47q-70 0 -110 -10.5t-84 -41.5q-31 -62 -69 -126t-60.5 -99t-74 -110t-67.5 -99q14 -18 41 -52t39 -48.5t33.5 -41t33 -38.5t29 -30t29.5 -25.5t26.5 -17t28 -12.5t27.5 -3q25 0 46.5 5.5t35 11.5t27.5 19t19 19.5t16 21.5t12 17l31 -18q-81 -193 -269 -193 q-39 0 -73.5 11t-58 26t-50.5 44.5t-42.5 50.5t-42.5 60t-42 60q-100 -118 -206 -182t-236 -64q-73 0 -139 24t-117.5 68.5t-82 115.5t-30.5 159zM225 354q0 -111 80 -187.5t182 -76.5q103 0 178.5 47t149.5 133l-58.5 72t-56.5 69.5t-47 56t-54 60t-50.5 50.5t-63.5 60 t-69 58q-67 -41 -105.5 -79t-62 -103t-23.5 -160zM373 1034q0 -90 153 -227q65 40 87 94.5t22 138.5q0 71 -34.5 116.5t-98.5 45.5q-56 0 -92.5 -48.5t-36.5 -119.5z" />
<glyph unicode="'" horiz-adv-x="499" d="M137 1403h225l-90 -535h-45z" />
<glyph unicode="(" horiz-adv-x="847" d="M178 481q0 157 29 293.5t79.5 239t122 181.5t154.5 128t178 72l19 -49q-178 -54 -285.5 -277.5t-107.5 -583.5q0 -366 107 -589.5t286 -278.5l-19 -49q-119 29 -219.5 100t-178 182t-121.5 273t-44 358z" />
<glyph unicode=")" horiz-adv-x="847" d="M88 -383q179 55 286 278.5t107 589.5q0 360 -107.5 583.5t-285.5 277.5l18 49q95 -23 178.5 -72t154.5 -128t122 -181.5t80 -239t29 -293.5q0 -158 -29 -294.5t-80 -238.5t-122 -180.5t-154.5 -127.5t-178.5 -72z" />
<glyph unicode="*" horiz-adv-x="1024" d="M121 1108l16 49l324 -74l31 332h51l30 -332l324 74l16 -49l-307 -129l172 -287l-41 -30l-221 251l-219 -251l-41 30l170 287z" />
<glyph unicode="+" horiz-adv-x="1222" d="M164 438v107h393v393h109v-393h393v-107h-393v-393h-109v393h-393z" />
<glyph unicode="," horiz-adv-x="536" d="M123 -303q100 50 145 135t45 178q-20 -10 -63 -10q-115 0 -115 106q0 46 32.5 76.5t86.5 30.5q72 0 119 -50t47 -136q0 -126 -76 -227t-199 -144z" />
<glyph unicode="-" horiz-adv-x="751" d="M86 416v133h578v-133h-578z" />
<glyph unicode="." horiz-adv-x="536" d="M143 104q0 51 36 88t87 37q54 0 90.5 -36.5t36.5 -88.5t-37 -89.5t-90 -37.5q-51 0 -87 38t-36 89z" />
<glyph unicode="/" horiz-adv-x="792" d="M-27 -393l658 1839h117l-666 -1839h-109z" />
<glyph unicode="0" d="M84 657q0 144 41 269.5t111 213.5t165 138.5t201 50.5q109 0 199.5 -54t149.5 -146t91.5 -212t32.5 -253q0 -200 -67.5 -358.5t-186 -246.5t-264.5 -88q-145 0 -254 92.5t-164 247t-55 346.5zM287 686q0 -191 33.5 -335t102 -226t163.5 -82q120 0 203 160t83 418 q0 193 -33.5 335t-101 221.5t-164.5 79.5q-119 0 -202.5 -159.5t-83.5 -411.5z" />
<glyph unicode="1" d="M289 0v47q75 3 145 23.5t84 48.5v936q0 22 -5 38t-19.5 26t-28.5 15.5t-45 8.5t-55.5 3.5t-71.5 0.5v45l409 137h35v-29l-41 -69v-1112q14 -28 84.5 -48.5t145.5 -23.5v-47h-637z" />
<glyph unicode="2" d="M92 35q253 184 403.5 337t211.5 278t61 255q0 125 -74 194.5t-194 69.5q-67 0 -124.5 -22t-98 -60t-68.5 -79t-47 -88l-43 14q12 58 34 111.5t59.5 106t86 91t117 62.5t149.5 24q172 0 285 -103.5t113 -267.5q0 -66 -15.5 -128.5t-38.5 -113.5t-64 -106t-78.5 -95.5 t-96 -93t-102 -87.5t-111 -89.5t-109.5 -90.5h578q33 15 62 76t32 128h41v-358h-955z" />
<glyph unicode="3" d="M109 356h41q18 -72 56.5 -138.5t88.5 -102.5q90 -68 219 -68q124 0 210.5 87.5t86.5 230.5q0 71 -28 124t-75.5 82t-100 42.5t-109.5 13.5q-52 0 -150 -35l-18 61q127 39 200 74q112 52 161.5 115t49.5 153q0 84 -58.5 143.5t-170.5 59.5q-47 0 -90 -15t-72.5 -34.5 t-58 -49t-43.5 -49t-31 -43.5l-8 -12l-37 19q9 31 26.5 67.5t52 82t79 81t112 60t144.5 24.5q147 0 247.5 -75.5t100.5 -198.5q0 -197 -256 -299q39 -7 80 -21t88 -42.5t82.5 -65.5t59.5 -93.5t24 -123.5q0 -121 -71 -222.5t-191 -159t-261 -57.5q-209 0 -348 92z" />
<glyph unicode="4" d="M33 412v59l690 846h104q-8 -94 -8 -213v-588h285v-104h-285v-293q15 -31 61 -50t115 -22v-47h-549v47q70 3 124 22.5t69 49.5v293h-606zM168 516h471v580z" />
<glyph unicode="5" d="M117 354h41q54 -161 151 -235q90 -72 219 -72q127 0 207 89.5t80 236.5q0 77 -38.5 133t-106 86t-144 43.5t-166.5 13.5h-167l96 647h581q18 13 31.5 37t18 37t12.5 41h35v-299h-39q-28 14 -123 14h-463l-49 -307h110q98 0 184 -13t165 -44t135 -77.5t89.5 -119 t33.5 -164.5q0 -83 -36.5 -160.5t-101 -137.5t-160.5 -96t-208 -36q-101 0 -194.5 24t-157.5 58z" />
<glyph unicode="6" d="M109 549q0 120 37 230.5t100 196t146.5 156t177.5 117.5t192.5 73.5t191.5 29.5l9 -58q-114 -20 -211 -63t-168.5 -100t-127 -129t-90.5 -148.5t-55 -161.5q99 87 188.5 132.5t188.5 45.5q161 0 273 -120t112 -299q0 -94 -36 -180.5t-98.5 -153t-155.5 -106.5t-201 -40 q-148 0 -256.5 76.5t-162.5 206t-54 295.5zM301 541q0 -222 90 -357t232 -135q115 0 187.5 88t72.5 250q0 158 -81 255t-235 97q-134 0 -266 -114v-84z" />
<glyph unicode="7" d="M172 864v447h39q45 -15 123 -15h792v-47q-44 -80 -138.5 -252t-145 -264.5t-127 -234.5t-146 -274t-141.5 -271h-137l680 1180h-625q-117 -79 -133 -269h-41z" />
<glyph unicode="8" d="M109 293q0 117 77 202t246 154q-98 52 -155.5 98t-89 106.5t-31.5 139.5q0 143 127.5 245.5t316.5 102.5q181 0 294.5 -87t113.5 -220q0 -104 -58.5 -182t-210.5 -158q106 -53 169.5 -99t102 -108.5t38.5 -140.5q0 -111 -66 -199.5t-175 -135t-237 -46.5 q-200 0 -331 90.5t-131 237.5zM293 334q0 -133 84 -213t209 -80q124 0 206 67t82 171q0 87 -54 146t-165 114l-172 84q-97 -62 -143.5 -132t-46.5 -157zM324 1057q0 -93 63 -156.5t176 -118.5l123 -61q145 109 145 297q0 100 -67.5 175t-183.5 75q-106 0 -181 -60.5 t-75 -150.5z" />
<glyph unicode="9" d="M88 852q0 105 44.5 196t116.5 151.5t162 95t183 34.5q211 0 334 -153t123 -396q0 -152 -51.5 -284.5t-136.5 -226.5t-196 -164.5t-228.5 -107.5t-235.5 -46l-15 57q217 45 369.5 158t226.5 270t74 348q0 202 -92 333.5t-244 131.5q-108 0 -175.5 -83.5t-67.5 -225.5 q0 -183 78.5 -291t230.5 -108q55 0 119 24l12 -47q-59 -43 -131.5 -63.5t-128.5 -20.5q-151 0 -261 118t-110 300z" />
<glyph unicode=":" horiz-adv-x="690" d="M250 104q0 51 37 88t88 37q53 0 90 -36.5t37 -88.5t-37 -89.5t-90 -37.5q-51 0 -88 38t-37 89zM250 756q0 51 37 87t88 36q54 0 90.5 -36t36.5 -87q0 -53 -36.5 -90t-90.5 -37q-51 0 -88 37.5t-37 89.5z" />
<glyph unicode=";" horiz-adv-x="690" d="M233 -334q51 30 87.5 75.5t54.5 94.5t25.5 90.5t7.5 79.5h-97q-27 0 -47 30.5t-20 61.5q0 52 37 81.5t84 29.5q69 0 115 -53t46 -140q0 -113 -74.5 -219t-193.5 -172zM250 756q0 51 37 87t88 36q54 0 90.5 -36t36.5 -87q0 -53 -36.5 -90t-90.5 -37q-51 0 -88 37.5 t-37 89.5z" />
<glyph unicode="&#x3c;" horiz-adv-x="1222" d="M215 457v98l772 401v-133l-620 -317l620 -318v-133z" />
<glyph unicode="=" horiz-adv-x="1222" d="M172 285v106h879v-106h-879zM172 592v106h879v-106h-879z" />
<glyph unicode="&#x3e;" horiz-adv-x="1222" d="M236 55v133l620 318l-620 317v133l772 -401v-98z" />
<glyph unicode="?" horiz-adv-x="847" d="M246 92q0 45 33.5 79t82.5 34q50 0 84.5 -34t34.5 -79t-34.5 -78.5t-84.5 -33.5q-49 0 -82.5 33.5t-33.5 78.5zM246 567q0 84 47 137t115 56q16 1 64 1t67 1q176 12 176 158q0 131 -121 186q-36 17 -82 30t-80.5 20t-103.5 20q-11 49 -11 61q0 51 27.5 82t79.5 31 q87 0 172 -59.5t140 -158.5t55 -204q0 -106 -48.5 -206t-117.5 -132q-47 -1 -77 -0.5t-60.5 0t-57.5 -3.5q-82 -8 -82 -74q0 -33 15.5 -87.5t39.5 -88.5h-69q-1 1 -19.5 29.5t-25 42t-19.5 42t-18.5 57t-5.5 60.5z" />
<glyph unicode="@" horiz-adv-x="2015" d="M244 328q0 173 68.5 332t185.5 275.5t280 185.5t344 69q195 0 351.5 -76.5t244.5 -215t88 -312.5q0 -163 -69.5 -298.5t-198.5 -215.5t-291 -80q-57 0 -92 35t-43 96l43 184l-6 2q-254 -323 -393 -323q-20 0 -41.5 19t-39.5 69.5t-18 122.5q0 248 170 424 q213 223 523 223h67l-137 -635q-6 -24 -6 -64q0 -21 11 -41t34 -20q111 0 205 73.5t147 193.5t53 255q0 148 -77.5 264.5t-205 178t-278.5 61.5q-164 0 -306 -59t-243 -163t-159 -253t-58 -322q0 -175 79.5 -321t230 -235t342.5 -89q160 0 291.5 57t265.5 169l30 -41 q-269 -259 -620 -259q-358 0 -565 195.5t-207 538.5zM817 250q0 -144 43 -144q39 0 116 74.5t200 218.5l65 316q-32 4 -65 4q-55 0 -114 -10.5t-81 -24.5q-73 -65 -118.5 -173.5t-45.5 -260.5z" />
<glyph unicode="A" horiz-adv-x="1269" d="M-70 0v47q74 3 121 19.5t76 54.5q132 324 186 471q158 427 213 592q7 21 12 37.5t7.5 31t3.5 22.5t2 23t2 21h211q0 -4 2 -24t2.5 -24t2.5 -19t3 -21.5t3.5 -19.5t6 -24.5t7.5 -25.5q68 -217 182 -561q88 -260 164 -463q31 -83 194 -90v-47h-577v47q75 3 128.5 21 t67.5 49l-145 424h-404l-143 -400q17 -37 73 -64t126 -30v-47h-527zM432 631h342l-131 422l-27 112h-8l-30 -112z" />
<glyph unicode="B" horiz-adv-x="1228" d="M6 0v47q86 4 156 26t90 68v1043q-13 30 -69.5 49t-131.5 22v45q140 1 305 6t244 5q220 0 331 -76.5t111 -194.5q0 -99 -50 -163.5t-185 -122.5q146 -38 227.5 -128t81.5 -206q0 -420 -528 -420h-582zM438 160q27 -53 63 -73.5t109 -20.5q149 0 226 93.5t77 246.5 q0 91 -57 160t-142.5 102.5t-183.5 33.5q-46 0 -92 -4v-538zM438 770q55 4 162 4q28 0 74.5 -2t64.5 -2q60 46 85.5 103t25.5 135q0 103 -83.5 167t-229.5 64h-99v-469z" />
<glyph unicode="C" horiz-adv-x="1355" d="M80 662q0 192 96.5 345t259.5 236.5t361 83.5q48 0 94 -3.5t78 -7t78 -13t67.5 -14.5t73.5 -18l72 -18v-338h-46q-16 182 -120 246q-23 14 -30.5 18.5t-43 21.5t-65.5 24.5t-81.5 15.5t-107.5 8q-144 0 -253.5 -74.5t-164.5 -195.5t-55 -268q0 -291 157 -475.5 t414 -184.5q77 0 137 20t91 46q61 49 103.5 117.5t57.5 140.5l50 -13l-72 -317q-12 -4 -51 -16.5t-48.5 -15t-41.5 -11.5t-47 -11t-46.5 -7t-58 -6.5t-64 -3t-81.5 -1.5q-152 0 -285 53.5t-226.5 145.5t-147.5 219.5t-54 270.5z" />
<glyph unicode="D" horiz-adv-x="1484" d="M41 1255v45q67 3 211.5 10t235 10t171.5 3q348 0 547 -168.5t199 -460.5q0 -147 -54 -277t-147.5 -222t-224.5 -145q-129 -52 -274 -52h-5l-649 2v47q73 3 130.5 22.5t70.5 49.5v1063q-13 30 -75 50t-136 23zM438 133q19 -22 94 -42.5t138 -20.5q169 0 289 71t178.5 194 t58.5 286q0 308 -165.5 469t-461.5 161h-131v-1118z" />
<glyph unicode="E" horiz-adv-x="1196" d="M-12 -6v47q86 4 165 29t99 71v1041q-13 30 -67.5 49t-127.5 22v45h797q72 0 123 15h39v-330h-43q-6 129 -62 176t-178 47h-295v-495h277q32 0 48 0.5t40.5 2t36 5.5t27.5 11t24 18t17.5 27t14.5 37.5t9 49.5h39v-416h-43q-3 36 -9.5 61t-12.5 43t-21 29.5t-26 18t-37.5 9 t-44 3t-57.5 0.5h-5h-277v-450q12 -53 56 -70l319 6q113 2 174 56t64 178h41v-330h-680z" />
<glyph unicode="F" horiz-adv-x="1097" d="M37 0v47q179 8 215 92v1037q-14 34 -71 54t-132 23v45h799q80 0 123 15h39v-330h-43q-6 129 -62 176t-178 47h-289v-510l277 11q38 1 55 2t44 4.5t38.5 9t28 16.5t24.5 27.5t15.5 40t11.5 55.5h39v-430h-43q-3 31 -7.5 54.5t-13 41.5t-15.5 29.5t-23.5 20t-27 12.5 t-36 6.5t-40.5 3t-50 0.5l-277 4v-454q20 -47 89 -73.5t149 -29.5v-47h-639z" />
<glyph unicode="G" horiz-adv-x="1452" d="M80 657q0 146 57.5 272.5t155 213t230 135.5t280.5 49q47 0 92.5 -3.5t75 -6.5t76.5 -12.5t65 -13.5t73 -18t70 -18v-335h-45q-14 143 -102 219q-23 19 -39.5 30t-59 33.5t-102.5 34.5t-131 12q-113 0 -206.5 -47t-153.5 -125.5t-92.5 -179.5t-32.5 -211 q0 -187 60.5 -331t179 -227t280.5 -83q81 0 159.5 38t110.5 77v293q-16 29 -87.5 49.5t-149.5 23.5v45h581v-45q-125 -5 -163 -73v-353q-129 -62 -250.5 -96.5t-276.5 -34.5q-145 0 -268.5 55t-207.5 148.5t-131.5 219t-47.5 265.5z" />
<glyph unicode="H" horiz-adv-x="1624" d="M59 0v47q72 3 126 22.5t67 49.5v1063q-13 30 -67 50t-126 23v45h572v-45q-72 -3 -126 -23t-67 -50v-467h746v467q-15 30 -68 50t-125 23v45h572v-45q-72 -3 -125 -23t-68 -50v-1063q15 -30 68 -49.5t125 -22.5v-47h-572v47q72 3 125 22.5t68 49.5v493h-746v-493 q13 -30 67 -49.5t126 -22.5v-47h-572z" />
<glyph unicode="I" horiz-adv-x="706" d="M55 0v47q75 3 133.5 22.5t71.5 49.5v1063q-13 30 -71.5 50t-133.5 23v45h596v-45q-75 -3 -133.5 -23t-71.5 -50v-1063q13 -30 71.5 -49.5t133.5 -22.5v-47h-596z" />
<glyph unicode="J" horiz-adv-x="733" d="M-68 -393q84 5 148.5 32.5t115 85t77 154.5t26.5 232v1071q-14 29 -78 49.5t-139 23.5v45h608v-45q-73 -3 -131.5 -23t-73.5 -50v-1100q0 -259 -143 -389t-410 -135v49z" />
<glyph unicode="K" horiz-adv-x="1394" d="M68 0v47q71 3 121 22.5t63 49.5v1063q-13 31 -63 50.5t-121 22.5v45h555v-45q-71 -3 -121.5 -22.5t-63.5 -50.5v-1063q13 -30 63.5 -49.5t121.5 -22.5v-47h-555zM467 647l485 541q-14 17 -27.5 27.5t-44.5 22t-75 17.5v45h541v-45q-203 -11 -328 -149l-363 -395l473 -527 q66 -72 132 -103t165 -34v-47h-610v47q48 2 79 10.5t41.5 16t27.5 24.5z" />
<glyph unicode="L" horiz-adv-x="1132" d="M18 0v47q80 4 147 26t87 68v1043q-13 30 -66.5 49t-126.5 22v45h594v-45q-75 -3 -138.5 -23.5t-76.5 -49.5v-1092l373 10q106 3 170.5 82.5t67.5 208.5h43v-391h-1074z" />
<glyph unicode="M" horiz-adv-x="1839" d="M25 0v47q67 3 123.5 29t76.5 59l58 746q16 203 16 231q0 52 -2 72q-16 27 -63.5 47.5t-114.5 23.5v45h377l69 -194l342 -854l402 835l94 213h328v-45q-68 -3 -115.5 -22t-63.5 -45v-55q0 -9 2.5 -55t7 -110.5t5.5 -86.5l43 -762q19 -30 73 -49.5t125 -22.5v-47h-587v47 q75 3 136.5 23t72.5 49l-39 758l8 213l-60 -164l-448 -928h-66l-385 967l-43 159l2 -145l-59 -844q11 -31 74 -58t133 -30v-47h-522z" />
<glyph unicode="N" horiz-adv-x="1591" d="M51 1255v45h361l116 -145l719 -846v506q0 35 -10 350q-15 31 -86.5 59t-142.5 31v45h546v-45q-69 -3 -123.5 -30t-70.5 -60v-796q0 -213 12 -385h-80l-823 968l-102 146h-7l7 -133v-478q0 -64 5.5 -196l6.5 -156q15 -31 86.5 -58t142.5 -30v-47h-555v47q70 3 127.5 29.5 t71.5 58.5v746q0 225 -10 290q-16 32 -69.5 56.5t-121.5 27.5z" />
<glyph unicode="O" horiz-adv-x="1529" d="M80 643q0 195 97.5 353t263.5 245.5t366 87.5q151 0 273.5 -50t203 -139t123.5 -209.5t43 -262.5q0 -201 -98 -362t-264 -249t-367 -88q-199 0 -345.5 87t-221 238.5t-74.5 348.5zM287 707q0 -140 36 -259.5t102.5 -207.5t168 -137.5t227.5 -49.5q81 0 157.5 39.5 t135 109t94 172.5t35.5 222q0 293 -149 472t-400 179q-77 0 -150.5 -40.5t-130.5 -110t-91.5 -172t-34.5 -217.5z" />
<glyph unicode="P" horiz-adv-x="1130" d="M29 0v47q187 8 223 92v1039q-14 33 -74.5 53.5t-136.5 23.5v45q130 0 309 3.5t209 3.5q255 0 383.5 -98.5t128.5 -274.5q0 -182 -127.5 -297t-359.5 -115q-40 0 -146 27v-399q20 -47 92.5 -73.5t153.5 -29.5v-47h-655zM438 600q45 -8 115 -8q152 0 234.5 95t82.5 255 q0 125 -80 208t-223 83q-82 0 -129 -4v-629z" />
<glyph unicode="Q" horiz-adv-x="1536" d="M80 649q0 196 94.5 352t257.5 242t363 86q202 0 351.5 -87t226.5 -238.5t77 -346.5q0 -86 -29 -179t-83.5 -181t-142 -162.5t-194.5 -114.5l173 -180q114 -119 239 -172q58 -26 217 -37v-45l-190 -14q-62 -4 -88 -4q-74 0 -122.5 14.5t-87.5 43.5t-106 95 q-66 64 -237 250h-29q-200 0 -357 83.5t-245 238t-88 356.5zM285 725q0 -191 65.5 -344t191.5 -243.5t292 -90.5t288.5 153.5t122.5 379.5q0 300 -156 484.5t-407 184.5q-159 0 -278 -151t-119 -373z" />
<glyph unicode="R" horiz-adv-x="1435" d="M39 0v47q176 7 213 94v1037q-14 33 -74.5 53.5t-136.5 23.5v45q112 0 263.5 3.5t273.5 3.5q255 0 373 -81t118 -253q0 -101 -66.5 -200t-179.5 -150l312 -369q49 -57 104 -106.5t78 -63.5q39 -25 196 -49l-6 -45l-180 2q-136 1 -167 8q-50 10 -99 58q-24 24 -72 79 q-95 108 -206 249l-111 142h-234v-376q20 -48 83.5 -75t140.5 -30v-47h-623zM438 606h140q161 0 225.5 91.5t64.5 267.5q0 116 -78 193t-225 77q-80 0 -127 -4v-625z" />
<glyph unicode="S" horiz-adv-x="1099" d="M109 375h45q14 -72 56 -142t99 -108q118 -78 230 -78q130 0 201 66.5t71 165.5q0 103 -63 165t-207 117q-211 81 -297 164.5t-86 224.5q0 168 140.5 273.5t358.5 105.5q163 0 301 -61v-320h-45q-16 183 -118 240q-1 1 -13.5 7.5t-17.5 9.5t-19 9.5t-23 10t-24.5 8.5 t-29 7.5t-30.5 4.5t-34 2q-136 0 -203 -61t-67 -152q0 -69 21 -113t83 -88t185 -96q101 -43 163.5 -78t111 -79.5t69 -98t20.5 -125.5q0 -177 -137 -282t-348 -105q-179 0 -357 80z" />
<glyph unicode="T" horiz-adv-x="1343" d="M59 967v346h39q51 -15 123 -15h899q72 0 123 15h39v-346h-41q-3 125 -65.5 180t-182.5 57l-229 2v-1046q30 -64 93.5 -86.5t154.5 -26.5v-47h-686v47q216 9 252 84v1075l-230 -2q-119 -2 -181 -56.5t-65 -180.5h-43z" />
<glyph unicode="U" horiz-adv-x="1538" d="M43 1255v45h573v-45q-72 -3 -126.5 -23t-69.5 -50v-678q0 -196 99.5 -304t283.5 -108q194 0 291.5 115t97.5 338v266q0 39 -10 354q-15 31 -85.5 59t-142.5 31v45h541v-45q-66 -3 -120 -30t-70 -60v-655q0 -138 -41 -243.5t-115 -170t-173 -97t-220 -32.5 q-246 0 -384.5 133t-138.5 373v709q-15 30 -67.5 50t-122.5 23z" />
<glyph unicode="V" horiz-adv-x="1302" d="M-70 1255v45h611v-45q-74 -3 -129 -22.5t-68 -50.5l322 -965l372 942q-15 37 -75.5 65t-131.5 31v45h537v-45q-70 -3 -132 -36.5t-81 -77.5l-485 -1164h-113l-401 1184q-11 36 -79.5 61.5t-146.5 32.5z" />
<glyph unicode="W" horiz-adv-x="2029" d="M-49 1255v45h581v-45q-72 -3 -123.5 -22t-64.5 -51l322 -965l297 823l-39 121q-11 37 -70 62.5t-133 31.5v45h575v-45q-73 -3 -126 -22.5t-68 -50.5l311 -965l344 942q-15 37 -75.5 65t-131.5 31v45h537v-45q-71 -3 -134.5 -36.5t-80.5 -77.5l-455 -1164h-108l-299 926 l-340 -926h-113l-401 1184q-11 36 -72 61.5t-133 32.5z" />
<glyph unicode="X" horiz-adv-x="1325" d="M-25 0v47q193 11 289 143l318 443l-295 483q-42 69 -100.5 102t-157.5 37v45h606v-45q-49 -3 -86 -12t-54.5 -17.5t-41.5 -23.5l254 -438l272 424q-4 3 -14.5 12.5t-16 13.5t-18.5 11.5t-26.5 12t-35.5 9.5t-49 8v45h527v-45q-193 -11 -289 -149l-297 -422l303 -500 q41 -69 104 -101.5t164 -35.5v-47h-614v47q111 4 180 51l-260 455l-297 -440q21 -18 35.5 -28.5t48 -22t76.5 -15.5v-47h-525z" />
<glyph unicode="Y" horiz-adv-x="1234" d="M-49 1255v45h565v-45q-51 -3 -86.5 -11.5t-51 -17.5t-34.5 -24l324 -549l319 545q-24 18 -36.5 26t-48.5 18t-87 13v45h467v-45q-85 -4 -133.5 -35t-93.5 -106l-340 -559v-397q15 -34 39.5 -57t58 -33.5t62.5 -14.5t71 -6v-47h-653v47q200 8 237 82v408l-352 579 q-45 73 -94 104t-133 35z" />
<glyph unicode="Z" horiz-adv-x="1222" d="M51 -6v41q99 93 189 221l661 954l-485 -8q-116 -2 -182.5 -69t-69.5 -199h-41v377h39q45 -15 123 -15h596q191 0 290 9v-41q-71 -58 -186 -224l-663 -954l581 14q107 3 173 79t69 204h43v-383h-735q-197 0 -402 -6z" />
<glyph unicode="[" horiz-adv-x="845" d="M246 -414v1786h512v-53l-346 -27v-1628l346 -26v-52h-512z" />
<glyph unicode="\" horiz-adv-x="792" d="M10 1446h117l616 -1839h-108z" />
<glyph unicode="]" horiz-adv-x="845" d="M88 -362l346 26v1628l-346 27v53h512v-1786h-512v52z" />
<glyph unicode="^" horiz-adv-x="1222" d="M162 508l401 772h99l401 -772h-133l-318 620l-317 -620h-133z" />
<glyph unicode="_" d="M-6 -201h1171v-80h-1171v80z" />
<glyph unicode="`" horiz-adv-x="643" d="M119 1362q16 49 53.5 71.5t83.5 22.5q14 0 20 -2l201 -414l-43 -26z" />
<glyph unicode="a" horiz-adv-x="882" d="M76 168q0 114 41 172l424 149l2 144v5q1 70 -49 130q-52 62 -121 61q-43 0 -75.5 -49t-35.5 -123l-166 -30v22q20 61 68 112.5t103.5 81.5t107.5 47t88 17q134 1 191 -65q55 -63 55 -183v-8l-9 -442q-1 -58 24 -84.5t62 -26.5q31 0 54 11t65 41v-54q-40 -42 -104.5 -78 t-110.5 -36q-70 0 -108.5 43t-40.5 88q-54 -56 -128.5 -93.5t-131.5 -37.5q-81 0 -143 50.5t-62 135.5zM258 205q0 -48 26 -83.5t70 -35.5q58 0 96 14.5t89 51.5l2 288q-16 -7 -125.5 -52t-143.5 -64q-14 -58 -14 -119z" />
<glyph unicode="b" horiz-adv-x="1067" d="M31 1321v39l311 90h29v-29l-43 -71v-570q172 127 301 127q72 0 137 -25t118.5 -73.5t85 -130.5t31.5 -186q0 -226 -144 -369t-396 -143q-69 0 -126.5 11.5t-88.5 25t-84 40.5l6 1149v26.5t-1.5 21t-4.5 19t-9.5 13.5t-16 13t-24.5 8.5t-34.5 8t-46.5 5.5zM328 238 q19 -92 86 -141.5t139 -49.5q80 0 144 54t98 140.5t34 186.5q0 153 -90 260t-235 107q-66 0 -176 -54v-503z" />
<glyph unicode="c" horiz-adv-x="808" d="M63 391q0 115 39.5 212.5t106 163t155 102t185.5 36.5q102 0 165 -34t72 -70q-4 -26 -23.5 -67t-39.5 -52q-32 12 -81.5 43t-104.5 56t-123 36q-81 -18 -129.5 -107.5t-48.5 -242.5q0 -168 85.5 -266.5t223.5 -98.5q125 0 215 123l37 -47q-167 -194 -361 -194 q-162 0 -267.5 112t-105.5 295z" />
<glyph unicode="d" horiz-adv-x="1089" d="M66 406q0 142 60.5 254.5t180.5 179.5t283 67q46 0 155 -28l-6 325q-1 63 -33.5 84.5t-138.5 30.5v39l336 92h33v-29l-39 -69l4 -1172q0 -13 2.5 -24.5t7 -21t8 -16t8 -13t5.5 -7.5l166 27v-51l-312 -105h-26l-19 150q-185 -137 -311 -137q-71 0 -135 26.5t-116 76.5 t-82.5 133t-30.5 188zM242 467q0 -157 84.5 -264t228.5 -107q72 0 186 62l-2 504q-26 80 -100.5 127t-144.5 47q-75 0 -133.5 -53t-88.5 -136.5t-30 -179.5z" />
<glyph unicode="e" horiz-adv-x="856" d="M63 401q0 224 121 364t308 140q303 0 303 -303v-35l-559 4q-5 -45 -5 -110q0 -158 91.5 -258.5t222.5 -100.5q81 0 127 23t121 88l30 -47q-105 -97 -187.5 -139.5t-199.5 -42.5q-160 0 -266.5 116.5t-106.5 300.5zM244 627l385 4q0 84 -52.5 148.5t-121.5 64.5 q-82 0 -138 -58t-73 -159z" />
<glyph unicode="f" horiz-adv-x="638" d="M43 778v51l154 43q0 66 3 112t21 115t51 122q70 112 155 173.5t198 61.5q59 0 96.5 -25t44.5 -57q-2 -26 -27.5 -65.5t-58.5 -53.5q-1 1 -17 12.5t-25 17.5t-27.5 17.5t-33.5 19t-34 15t-37 11.5t-35 4q-13 0 -29.5 -18t-35 -65.5t-27.5 -113.5q-5 -35 -11 -128.5 t-6 -160.5h271v-90h-273l7 -647q8 -15 19.5 -27t21 -19.5t27 -13.5t25.5 -9t30.5 -5t27.5 -2.5t30 -1t27 -0.5v-51h-526v47q70 4 104 19t48 43l2 669h-160z" />
<glyph unicode="g" horiz-adv-x="1026" d="M82 -283q0 41 23 79t64 69t77 51.5t82 42.5v2q-24 6 -48 14.5t-54.5 26t-53.5 38.5t-39 54.5t-16 71.5v22q77 59 184 125q-199 84 -199 275q0 142 108.5 230.5t264.5 88.5q134 0 256 -69h295v-99l-258 6q45 -70 45 -135q0 -147 -110 -235t-263 -88q-53 0 -100 14 q-56 -49 -74 -98q3 -44 56.5 -71.5t128.5 -29.5q243 -8 286 -12q113 -11 176.5 -70.5t63.5 -156.5q0 -71 -34 -131t-107 -119q-171 -141 -377 -141q-169 0 -273 65t-104 180zM244 -250q12 -82 95.5 -127t215.5 -45q173 0 252 92q45 52 45 113q0 65 -34.5 105t-92.5 49 q-107 15 -328 18q-142 -72 -153 -205zM270 614q0 -115 59.5 -191.5t137.5 -76.5q77 0 126.5 65.5t49.5 168.5q0 116 -50.5 192t-143.5 76q-76 0 -127.5 -63.5t-51.5 -170.5z" />
<glyph unicode="h" horiz-adv-x="1099" d="M47 1319v39l305 92h33v-29l-39 -69v-578q70 53 160 93t145 40q64 0 112.5 -16.5t79 -50t50 -71.5t28.5 -93.5t12 -102t3 -110.5q0 -78 -7 -174.5t-15 -153.5l-7 -57q58 -21 170 -31v-47h-469v47q48 3 75.5 13t37.5 21.5t22 35.5q23 136 23 336q0 69 -4 115.5t-17.5 92.5 t-37 73.5t-65 44t-99.5 16.5q-63 0 -195 -60v-626q16 -33 37.5 -44t91.5 -18v-47h-424v47q68 4 92.5 18t38.5 44v1095v6q0 53 -12 70q-21 29 -125 39z" />
<glyph unicode="i" horiz-adv-x="538" d="M63 0v49q70 6 95.5 19t42.5 43l2 557q0 38 -28.5 64.5t-102.5 45.5v37l264 96h24v-800q18 -32 41.5 -43.5t96.5 -18.5v-49h-435zM164 1270q0 40 31.5 73t78.5 33q46 0 77.5 -33t31.5 -73q0 -39 -32 -71t-77 -32q-47 0 -78.5 32t-31.5 71z" />
<glyph unicode="j" horiz-adv-x="516" d="M-106 -473q311 21 311 442v688q0 54 -30 81.5t-122 43.5v35l309 88h33v-26l-33 -74l9 -850v-11q0 -231 -123 -346q-125 -119 -354 -124v53zM166 1270q0 40 31.5 73t78.5 33q46 0 77.5 -33t31.5 -73q0 -39 -32 -71t-77 -32q-47 0 -78.5 32t-31.5 71z" />
<glyph unicode="k" horiz-adv-x="1003" d="M47 1319v39l311 92h33v-29l-43 -69v-1243q12 -25 19.5 -33.5t30.5 -16t73 -12.5v-47h-418v47q68 4 92.5 18t38.5 44v1095v6q0 53 -12 70q-21 29 -125 39zM381 453l317 335q-10 12 -48 23.5t-85 17.5v50h430v-50q-157 -10 -231 -84l-223 -225l307 -375q75 -92 207 -98v-47 h-467v47q91 3 112 27z" />
<glyph unicode="l" horiz-adv-x="528" d="M45 0v47q69 4 97.5 18.5t41.5 43.5v1097q0 34 -1.5 46.5t-14 29.5t-41 24.5t-80.5 12.5v39l307 92h33v-29l-39 -69v-1243q15 -31 43.5 -43t104.5 -19v-47h-451z" />
<glyph unicode="m" horiz-adv-x="1660" d="M72 0v47q48 3 74.5 12t35 18.5t19.5 31.5v550q0 78 -119 117v33l256 102h22v-147q72 54 170.5 98.5t151.5 44.5q178 0 229 -155q70 54 174 103.5t158 49.5q131 0 183.5 -71t54.5 -209l6 -531q20 -14 47 -22t50 -10.5t71 -6.5v-55q-122 4 -258 4q-48 0 -201 -6v49 q46 3 72 12.5t35 19.5t20 32l-6 475q-2 84 -50 143t-134 59q-43 0 -104.5 -20.5t-108.5 -50.5v-608q15 -24 24 -33t33 -16.5t74 -12.5v-47h-418v47q47 3 72.5 12t34 19t16.5 31v479q0 79 -47.5 142t-133.5 63q-40 0 -104 -21.5t-111 -50.5v-612q13 -24 22.5 -33t34 -16.5 t75.5 -12.5v-47h-420z" />
<glyph unicode="n" horiz-adv-x="1103" d="M68 0v47q69 4 93 17.5t40 44.5v553q0 34 -31 64.5t-98 47.5v39l266 96h22v-145q72 54 170.5 98.5t151.5 44.5q132 0 187 -72t55 -206v-533q20 -15 46.5 -23t47 -10.5t80.5 -7.5v-55h-465v49q68 6 90.5 19t34.5 43v477q0 85 -54 145t-137 60q-39 0 -99 -20.5t-108 -47.5 v-616q18 -33 40.5 -44t95.5 -18v-47h-428z" />
<glyph unicode="o" horiz-adv-x="1019" d="M66 453q0 199 129 326.5t329 127.5q199 0 314.5 -127t115.5 -336q0 -202 -129.5 -332t-326.5 -130q-202 0 -317 126t-115 345zM252 504q0 -198 78 -327.5t213 -129.5q100 0 163.5 101.5t63.5 242.5q0 204 -79.5 327.5t-221.5 123.5q-90 0 -153.5 -103.5t-63.5 -234.5z " />
<glyph unicode="p" horiz-adv-x="1081" d="M8 -475q154 12 176 63v1078q0 38 -28 65t-97 45v39l263 103h24v-144q179 131 307 131q72 0 136 -25.5t116 -75.5t82.5 -133t30.5 -188q0 -223 -141.5 -362t-389.5 -139q-25 0 -50 5.5t-55 16t-38 12.5l6 -448q19 -12 50 -20t58 -11.5t89 -9.5v-53h-539v51zM348 240 q23 -86 93 -136.5t139 -50.5q116 0 190 109.5t74 259.5q0 154 -86.5 262.5t-229.5 108.5q-70 0 -180 -56v-497z" />
<glyph unicode="q" horiz-adv-x="1054" d="M66 408q0 223 137 361t377 138q120 0 237 -67l47 82h45l-12 -156v-1178q25 -51 176 -63v-51h-534v53q144 12 198 43l2 547q-196 -135 -297 -135q-72 0 -137.5 26.5t-119.5 77.5t-86.5 134.5t-32.5 187.5zM244 467q0 -163 88.5 -268t234.5 -105q31 0 62.5 10t51 20.5 t56.5 33.5v487q-28 87 -95 140t-134 53q-115 0 -189.5 -110.5t-74.5 -260.5z" />
<glyph unicode="r" horiz-adv-x="737" d="M72 0v49q48 4 74.5 13t35 18.5t19.5 30.5v563q0 33 -28.5 57.5t-100.5 42.5v39l260 96h20l4 -194q59 63 91.5 94.5t77 60.5t79.5 29q66 0 146 -39l-84 -168h-21q-99 58 -162 58q-13 0 -24.5 -3t-20 -6.5t-20 -12t-17 -14t-20 -18.5t-21.5 -20v-561q11 -19 42.5 -32.5 t60.5 -18.5t86 -13v-51h-477z" />
<glyph unicode="s" horiz-adv-x="778" d="M78 264h51q47 -88 108.5 -155.5t94.5 -67.5q211 0 211 156q0 60 -45.5 99.5t-141.5 78.5q-136 56 -194 113.5t-58 158.5q0 106 93 182t227 76q131 0 248 -55l10 -217h-45q-46 90 -101 152.5t-90 62.5q-59 0 -99.5 -14t-58.5 -37.5t-25 -44.5t-7 -45q0 -67 38 -107 t152 -86q133 -55 191.5 -109t58.5 -149q0 -113 -86.5 -194.5t-216.5 -81.5q-175 0 -291 57z" />
<glyph unicode="t" horiz-adv-x="647" d="M63 780v43l244 242h27l-2 -191h305v-96l-303 2q-8 -414 -8 -506q0 -87 51 -136.5t141 -49.5q42 0 135 37v-41q-43 -35 -121 -67.5t-131 -32.5q-133 0 -187 66.5t-54 197.5q0 110 7 285.5t9 248.5z" />
<glyph unicode="u" horiz-adv-x="1089" d="M47 811v41l279 51h22l-2 -606q0 -86 52 -146.5t139 -60.5q38 0 78 11.5t59.5 20.5t62.5 32v532q0 63 -33 88t-137 37v41l312 51h18v-723q0 -30 13 -52.5t28 -29.5l139 25v-51l-303 -99h-24l-13 140q-71 -51 -170 -93.5t-153 -42.5q-128 0 -180 74t-52 211v424 q0 53 -29 78.5t-106 46.5z" />
<glyph unicode="v" horiz-adv-x="952" d="M-10 831v48h444v-48q-73 -4 -131 -36l229 -605l218 570q-14 26 -53.5 47t-96.5 24v48h371v-48q-107 -5 -154 -114l-303 -717l-78 -16l-291 755q-33 87 -155 92z" />
<glyph unicode="w" horiz-adv-x="1474" d="M-10 831v48h442v-48q-73 -4 -131 -36l231 -602l185 489l-21 57q-18 49 -54 69t-105 23v48h438v-48q-75 -4 -125 -36l205 -602l217 567q-14 26 -53 47t-97 24v48h373v-48q-110 -5 -156 -114l-297 -715l-81 -12l-209 608l-234 -596l-80 -12l-293 749q-33 87 -155 92z" />
<glyph unicode="x" horiz-adv-x="962" d="M4 0v47q126 5 197 96l207 271l-207 327q-23 37 -73 62t-116 28v48h461v-48q-33 -2 -56.5 -7.5t-34 -11t-26.5 -15.5l166 -269l180 260q-4 2 -15.5 10.5t-19.5 13t-27.5 10t-45.5 9.5v48h354v-48q-127 -8 -196 -98l-197 -256l219 -338q56 -86 187 -92v-47h-459v47 q72 4 114 31l-174 284l-192 -272q39 -39 106 -43v-47h-352z" />
<glyph unicode="y" horiz-adv-x="954" d="M6 831v48h443v-48q-79 -4 -136 -36l230 -615l211 580q-10 26 -48.5 47t-95.5 24v48h369v-48q-111 -5 -158 -114l-256 -633q-35 -87 -108.5 -283.5t-98.5 -253.5q-13 -32 -42.5 -53.5t-69.5 -21.5q-45 0 -73 28.5t-28 65.5q0 39 27 65.5t74 26.5q24 0 67 -16l133 321 l-292 776q-31 87 -148 92z" />
<glyph unicode="z" horiz-adv-x="833" d="M47 -2v41q60 60 115 145l409 625l-278 -6q-76 -1 -122.5 -54.5t-49.5 -142.5h-41v285h37q31 -19 90 -19h397q133 0 197 9v-39q-40 -34 -117 -152l-414 -624l316 10q69 1 131.5 57t93.5 141l35 -12q-18 -75 -43 -150t-45 -110h-443q-84 0 -268 -4z" />
<glyph unicode="{" horiz-adv-x="921" d="M53 430v94q169 15 237 83t68 222v181q0 189 107 275.5t313 86.5h31v-55q-148 -1 -219.5 -84t-71.5 -234v-112q0 -194 -74 -279t-264 -119v-24q190 -34 264 -118.5t74 -278.5v-113q0 -151 71.5 -233.5t219.5 -83.5v-56h-31q-206 0 -313 87t-107 276v180q0 154 -67.5 222 t-237.5 83z" />
<glyph unicode="|" horiz-adv-x="706" d="M281 -393v1839h100v-1839h-100z" />
<glyph unicode="}" horiz-adv-x="921" d="M113 -362q290 3 290 317v113q0 194 74 278.5t264 118.5v24q-190 34 -264 119t-74 279v112q0 151 -71 234t-219 84v55h30q206 0 313 -86.5t107 -275.5v-181q0 -154 68 -222t237 -83v-94q-170 -15 -237.5 -83t-67.5 -222v-180q0 -189 -107 -276t-313 -87h-30v56z" />
<glyph unicode="~" horiz-adv-x="1222" d="M131 369q16 44 42.5 90t65 93t91.5 77t110 30q104 0 228 -71q8 -4 28.5 -17t29.5 -18t27.5 -14.5t30 -13.5t27.5 -7.5t31 -3.5q60 0 96.5 43.5t79.5 136.5l74 -30q-15 -44 -42 -91t-66 -94.5t-92 -77.5t-110 -30q-90 0 -202 63q-8 4 -47.5 26.5t-54.5 30t-44 16.5t-53 9 q-32 0 -57 -12.5t-47.5 -40.5t-36.5 -53.5t-37 -71.5z" />
<glyph unicode="&#xa1;" horiz-adv-x="700" d="M213 731q0 45 34.5 79t84.5 34q49 0 84 -34t35 -79t-35 -79t-84 -34q-50 0 -84.5 34t-34.5 79zM217 -500l86 967h53l88 -967h-227z" />
<glyph unicode="&#xa2;" d="M203 410q0 148 71.5 263.5t185.5 174.5t247 59h28l92 240h76l-94 -248q67 -18 107.5 -43t50.5 -49q-6 -29 -27.5 -73t-42.5 -56q-48 36 -135 88l-230 -614q67 -50 185 -50q133 0 229 121l39 -47q-169 -190 -379 -190q-60 0 -125 24l-100 -268h-76l109 291 q-96 58 -153.5 155.5t-57.5 221.5zM373 487q0 -100 24.5 -168t73.5 -126l225 600q-57 25 -135 34q-79 -15 -133.5 -103t-54.5 -237z" />
<glyph unicode="&#xa3;" d="M-10 -39q0 40 18 55q27 24 101.5 41t87.5 35q63 84 88.5 171.5t36.5 203.5h-236v78h244q43 263 61 336q28 117 79.5 207t116.5 143t135.5 79.5t145.5 26.5q111 0 159 -41t50 -92q2 -32 -20.5 -62.5t-77.5 -37.5q-18 24 -28.5 37.5t-35.5 37.5t-47.5 37t-57 24t-71.5 11 q-25 -7 -43 -20.5t-40.5 -46.5t-42.5 -99.5t-38 -166.5q-16 -84 -33 -210.5t-26 -162.5h356v-78h-362q-38 -121 -95.5 -203t-183.5 -198l7 -11q102 31 192 31q15 0 30 -2t26.5 -3.5t28 -7.5t24.5 -8t25.5 -11t22.5 -11.5t23.5 -13.5t21 -12.5t22.5 -14.5l20 -12 q16 -10 47.5 -32t48.5 -32.5t43 -20t51 -9.5q133 0 133 110q0 21 -11 45t-21.5 39t-38.5 51q10 36 36.5 56t57.5 20q39 0 67.5 -31.5t28.5 -79.5q0 -71 -51 -146t-134.5 -126t-168.5 -51q-36 0 -70.5 11t-54.5 22t-56 35t-53 34q-24 14 -66.5 43t-67 44t-59 28.5t-63.5 13.5 q-39 0 -71.5 -17.5t-50.5 -38.5t-44 -38.5t-53 -17.5q-26 0 -44.5 15t-18.5 44z" />
<glyph unicode="&#xa4;" d="M49 737v66h154q26 141 100 260t185.5 191.5t234.5 72.5q37 0 71 -3t55 -5t57 -11.5t47 -12.5t57 -17t57 -18v-334h-37q-11 146 -82 223q-49 52 -102 80t-129 28q-71 0 -129.5 -36.5t-97.5 -100.5t-63 -143.5t-34 -173.5h416v-66h-424q0 -12 -1 -43t-1 -47q0 -24 4 -86 h332v-65h-324q64 -445 373 -445q51 0 92.5 19t65.5 45q97 103 137 254l37 -11l-58 -307q-85 -30 -114 -39t-92 -19.5t-138 -10.5q-100 0 -187 42.5t-148.5 114.5t-103 163.5t-58.5 193.5h-150v65h142q-3 40 -3 82q0 51 3 94h-144z" />
<glyph unicode="&#xa5;" d="M8 1255v45h504v-45q-23 -1 -42 -5t-30 -6.5t-24.5 -10t-17 -9.5t-16 -12.5t-13.5 -11.5l264 -514l268 514q-1 1 -11 8.5t-12.5 9t-12.5 8t-16 8.5t-17.5 6.5t-22 6.5t-25.5 4.5t-32 3.5v45h399v-45q-75 -4 -115 -33.5t-84 -107.5l-229 -414h305v-63h-340l-18 -39v-133 h358v-66h-356v-245q28 -62 79 -82.5t134 -24.5v-47h-609v47q185 8 220 80v272h-357v66h359v115l-27 57h-332v63h295l-221 412q-42 79 -83.5 109t-121.5 34z" />
<glyph unicode="&#xa6;" horiz-adv-x="706" d="M281 373h100v-766h-100v766zM281 700v746h100v-746h-100z" />
<glyph unicode="&#xa7;" d="M168 -233q0 37 22.5 68.5t61.5 35.5q131 -125 237 -125q99 0 146 45t47 141q0 39 -22 81.5t-50 75.5t-96 110t-119 139q-184 222 -184 459q0 64 19.5 124.5t48 104.5t68 85.5t71.5 66.5t67 47q61 40 149 65t181 25q78 0 126 -34.5t48 -86.5q0 -36 -22 -66t-60 -34 q-30 24 -45 35.5t-51.5 35.5t-72.5 35.5t-72 11.5q-99 0 -146 -44.5t-47 -139.5q0 -32 12 -63.5t42.5 -72t57.5 -72.5t82.5 -94t92.5 -105q184 -219 184 -457q0 -79 -27.5 -151t-73.5 -125.5t-86.5 -88t-86.5 -63.5q-147 -90 -330 -90q-77 0 -124.5 34.5t-47.5 86.5z M322 819q0 -38 5.5 -72t22.5 -71t29 -61.5t45 -68.5t50 -65t64 -77.5t68 -81.5q83 -101 120 -181.5t38 -181.5q0 -48 -6 -78q43 61 59.5 116.5t16.5 143.5q0 44 -11 87t-23.5 74t-46 79.5t-53 74t-71 89t-76.5 94.5q-96 121 -126.5 189t-31.5 173q0 49 6 76 q-44 -60 -61.5 -115.5t-17.5 -142.5z" />
<glyph unicode="&#xa8;" horiz-adv-x="643" d="M2 1202q0 41 32 74t77 33q46 0 76 -32.5t30 -74.5q0 -40 -30 -71t-76 -31q-45 0 -77 31.5t-32 70.5zM426 1202q0 41 31.5 74t77.5 33t76 -32.5t30 -74.5q0 -40 -30 -71t-76 -31t-77.5 31t-31.5 71z" />
<glyph unicode="&#xa9;" horiz-adv-x="2048" d="M229 471q0 159 62.5 304t168.5 250.5t251.5 167.5t304.5 62t304 -62t250.5 -167.5t167.5 -250.5t62 -304t-62 -304t-167.5 -250.5t-250.5 -167.5t-304 -62t-304.5 62t-251.5 167.5t-168.5 250.5t-62.5 304zM315 471q0 -193 93 -354.5t254.5 -255.5t353.5 -94 q191 0 352 94t253.5 255.5t92.5 354.5q0 143 -55 273.5t-148 224.5t-222.5 149.5t-272.5 55.5q-144 0 -274 -55.5t-223.5 -149.5t-148.5 -224.5t-55 -273.5zM600 479q0 191 129 313.5t320 122.5q44 0 86.5 -5t69 -11t72.5 -17.5t71 -17.5v-233h-43q-4 45 -29.5 87.5 t-61.5 69.5q-1 1 -15 12t-24.5 16.5t-29 14.5t-43 13t-53.5 4q-120 0 -186 -97t-66 -241q0 -188 78.5 -301t224.5 -113q8 0 16 1t16 3l14 3.5t13.5 5.5t11.5 6t12 7t10.5 7t10.5 7.5t10 6.5q91 69 119 166l47 -10l-55 -221q-17 -5 -51.5 -16t-49.5 -14.5t-44 -9t-60 -7.5 t-73 -2q-193 0 -320 129.5t-127 320.5z" />
<glyph unicode="&#xaa;" horiz-adv-x="823" d="M127 805q0 83 27 125l321 110v84q0 50 -33.5 95t-81.5 45q-30 0 -47.5 -33t-19.5 -86l-152 -23v19q20 57 77 102.5t112.5 65.5t93.5 20q101 0 147 -48t43 -136l-10 -301q-1 -36 16 -57t42 -21q11 0 22.5 4t19 7.5t23.5 13.5t23 14v-43q-28 -30 -75.5 -56t-80.5 -26 q-48 0 -81 27.5t-38 58.5q-35 -37 -92.5 -61.5t-99.5 -24.5q-62 0 -109 33.5t-47 91.5zM156 336v88h516v-88h-516zM274 834q0 -29 18.5 -51.5t47.5 -22.5q72 0 131 41l4 192q-12 -5 -54 -23t-78 -34.5t-52 -26.5q-17 -34 -17 -75z" />
<glyph unicode="&#xab;" horiz-adv-x="1024" d="M106 442v76l353 326l41 -33l-230 -330l230 -331l-41 -33zM471 442v76l354 326l39 -33l-227 -330l227 -331l-39 -33z" />
<glyph unicode="&#xac;" horiz-adv-x="1222" d="M164 479v107h874v-500h-108v393h-766z" />
<glyph unicode="&#xad;" horiz-adv-x="751" d="M86 416v133h578v-133h-578z" />
<glyph unicode="&#xae;" horiz-adv-x="1138" d="M111 954q0 190 134.5 323.5t323.5 133.5q191 0 325 -133.5t134 -323.5q0 -189 -134.5 -322.5t-324.5 -133.5q-189 0 -323.5 133.5t-134.5 322.5zM164 954q0 -169 118.5 -289t286.5 -120q94 0 177.5 40t140.5 109h-39q-71 0 -89.5 7.5t-53.5 52.5q-31 40 -68.5 97 t-40.5 62h-70v-147q14 -35 99 -39v-29h-295v29q79 4 94 35v399q-6 12 -33 20.5t-61 8.5v31q56 0 130 1t109 1q217 0 217 -138q0 -94 -98 -137l105 -137q18 -23 38.5 -44.5t26.5 -25.5q17 -12 49 -20q70 101 70 233q0 169 -119.5 289.5t-288.5 120.5q-168 0 -286.5 -120.5 t-118.5 -289.5zM526 954h52q54 0 74 31.5t20 97.5q0 41 -26.5 71t-74.5 30q-5 0 -21 -1t-24 -1v-228z" />
<glyph unicode="&#xaf;" horiz-adv-x="643" d="M12 1153v109h619v-109h-619z" />
<glyph unicode="&#xb0;" horiz-adv-x="819" d="M109 1114q0 124 88.5 212.5t212.5 88.5t212.5 -88.5t88.5 -212.5t-88.5 -212.5t-212.5 -88.5t-212.5 88.5t-88.5 212.5zM223 1114q0 -87 52 -146t135 -59t134.5 59t51.5 146t-51.5 146t-134.5 59t-135 -59t-52 -146z" />
<glyph unicode="&#xb1;" horiz-adv-x="1222" d="M164 0v106h895v-106h-895zM164 602v107h393v383h109v-383h393v-107h-393v-383h-109v383h-393z" />
<glyph unicode="&#xb2;" horiz-adv-x="753" d="M57 680q105 71 179 130.5t118.5 105t69.5 89t33 77.5t8 75q0 69 -43 106t-119 37q-36 0 -67.5 -13t-55.5 -36.5t-39.5 -44t-31.5 -47.5l-29 17q12 48 33 88.5t55 77.5t86.5 58t118.5 21q112 0 184 -63.5t72 -161.5q0 -116 -76.5 -206.5t-284.5 -213.5h473l-49 -135h-622z " />
<glyph unicode="&#xb3;" horiz-adv-x="729" d="M80 668q0 27 16 49.5t49 23.5q8 -5 32.5 -21.5t41.5 -26.5t44.5 -19.5t53.5 -9.5q72 0 118 41t46 106q0 166 -186 166q-17 0 -40 -3t-50.5 -7.5t-34.5 -5.5l-16 55q98 20 149 45q72 37 96.5 66t24.5 87q0 47 -34 76t-101 29q-90 0 -152 -102l-39 12q6 28 24 59t49 62 t82 51t112 20q102 0 163.5 -44.5t61.5 -112.5q0 -65 -36.5 -105.5t-125.5 -83.5q90 -13 149.5 -66t59.5 -135q0 -158 -188 -235q-124 -51 -248 -51q-46 0 -83.5 23.5t-37.5 56.5z" />
<glyph unicode="&#xb4;" horiz-adv-x="643" d="M193 1040l200 414q6 2 21 2q47 0 85 -22.5t52 -71.5l-313 -348z" />
<glyph unicode="&#xb5;" horiz-adv-x="1284" d="M25 -453q0 27 22 137.5t43 186.5q46 180 108 476t93 505h180q-123 -526 -123 -592q0 -76 51 -117t119 -41q44 0 83.5 19.5t67.5 52.5t47 67.5t32 71.5q17 50 32 102.5t30.5 122.5t22 100.5t23.5 118.5t18 95h179q-115 -435 -150 -596q0 -62 23.5 -98.5t85.5 -36.5 q107 0 162 100q12 23 18.5 28t15.5 5q13 0 18 -7t5 -28q0 -25 -14 -63t-39.5 -77t-69 -67t-94.5 -28q-70 0 -118.5 50.5t-68.5 174.5q-73 -125 -147 -177t-158 -52q-152 0 -241 223q-62 -374 -99 -652q-5 -41 -24.5 -58t-67.5 -17q-39 0 -52 15.5t-13 55.5z" />
<glyph unicode="&#xb6;" d="M156 911q0 178 125 287t364 109q39 0 184 -3.5t215 -3.5v-45q-71 -5 -130 -27t-76 -54v-1477h-93v850q-118 -29 -153 -29q-208 0 -322 107.5t-114 285.5zM530 926q0 -332 148 -332q42 0 67 10v625q-30 6 -73 6q-69 0 -105.5 -90t-36.5 -219z" />
<glyph unicode="&#xb7;" horiz-adv-x="571" d="M160 596q0 51 37 88t88 37q52 0 89.5 -37t37.5 -88t-37.5 -89t-89.5 -38q-51 0 -88 38t-37 89z" />
<glyph unicode="&#xb8;" horiz-adv-x="643" d="M131 -449q0 29 17.5 49.5t41.5 20.5q23 0 54 -22q3 -3 17.5 -14t20.5 -15t18.5 -11t23 -9.5t22.5 -2.5q27 0 48.5 22.5t21.5 49.5q0 8 -1.5 15t-7 15t-9.5 13t-15 14.5t-17 14t-23 17.5t-26 20q-4 4 -15.5 13.5t-15.5 13t-12 11t-11.5 12t-7.5 11.5t-5.5 13.5t-1.5 13.5 q0 34 50.5 92.5t129.5 116.5h57q-39 -28 -69.5 -59.5t-43 -51t-12.5 -25.5q0 -14 9 -24t32 -25.5t35 -25.5q45 -38 61.5 -62.5t16.5 -60.5q0 -23 -18 -59.5t-47 -67.5q-38 -41 -85 -70t-88 -29q-62 0 -103.5 24t-41.5 62z" />
<glyph unicode="&#xb9;" horiz-adv-x="630" d="M86 645v39q62 4 112 23t64 43v462q0 54 -32 68t-136 14v37l326 92h29v-24l-33 -60v-596q13 -26 53 -39.5t113 -19.5v-39h-496z" />
<glyph unicode="&#xba;" horiz-adv-x="882" d="M121 1008q0 138 93 229.5t237 91.5q146 0 228.5 -89.5t82.5 -233.5q0 -142 -91.5 -234t-236.5 -92q-147 0 -230 88t-83 240zM186 336v88h512v-88h-512zM272 1042q0 -134 51 -219.5t140 -85.5q64 0 105.5 67.5t41.5 162.5q0 140 -52 222.5t-146 82.5q-57 0 -98.5 -70 t-41.5 -160z" />
<glyph unicode="&#xbb;" horiz-adv-x="1024" d="M160 150l227 331l-227 330l39 33l354 -326v-76l-354 -325zM524 150l230 331l-230 330l41 33l353 -326v-76l-353 -325z" />
<glyph unicode="&#xbc;" horiz-adv-x="1519" d="M106 551v39q63 4 113 23t64 42v463q0 54 -32 68t-136 14v37l325 92h29v-24l-33 -60v-596q13 -26 53 -39.5t113 -19.5v-39h-496zM281 -43l854 1339h106l-858 -1339h-102zM772 205l488 518l65 -8q-4 -136 -4 -142v-309h197l-43 -96h-154v-279h-147v279h-392zM928 264h246 v271z" />
<glyph unicode="&#xbd;" horiz-adv-x="1560" d="M106 551v39q63 4 113 23t64 42v463q0 54 -32 68t-136 14v37l325 92h29v-24l-33 -60v-596q13 -26 53 -39.5t113 -19.5v-39h-496zM281 -43l854 1339h106l-858 -1339h-102zM885 -20q130 88 213 157t124.5 125.5t55.5 99.5t14 95q0 69 -43.5 106t-118.5 37q-36 0 -67.5 -13 t-55.5 -36.5t-39.5 -44t-31.5 -47.5l-29 16q12 48 33 88.5t55 77.5t86.5 58.5t118.5 21.5q112 0 184 -63.5t72 -161.5q0 -116 -76.5 -206.5t-283.5 -213.5h452l-49 -135h-602z" />
<glyph unicode="&#xbe;" horiz-adv-x="1576" d="M100 575q0 27 16.5 50t49.5 24l40 -27q39 -27 69 -39t63 -12q72 0 118 41.5t46 106.5q0 166 -187 166q-16 0 -40 -3t-50.5 -8t-34.5 -6l-16 56q100 20 150 45q72 37 96 66t24 87q0 47 -34 76t-101 29q-88 0 -151 -103l-39 13q6 28 24 59t48.5 62t81.5 51t112 20 q102 0 163.5 -45t61.5 -113q0 -65 -36 -105t-125 -83q90 -13 149 -65.5t59 -135.5q0 -158 -188 -235q-124 -51 -248 -51q-46 0 -83.5 23t-37.5 56zM338 -43l854 1339h106l-858 -1339h-102zM829 205l488 518l65 -8q-4 -136 -4 -142v-309h197l-43 -96h-154v-279h-147v279h-391 zM985 264h246v271z" />
<glyph unicode="&#xbf;" horiz-adv-x="847" d="M57 -104q0 106 48 205.5t118 131.5q31 1 73 1t68.5 0.5t53.5 3.5q82 8 82 73q0 32 -16 87t-40 89h70q1 -1 19.5 -29.5t25 -42t19.5 -42t18.5 -57t5.5 -60.5q0 -84 -47 -137t-115 -56q-15 -1 -63.5 -1t-67.5 -1q-36 -3 -64.5 -10.5t-55.5 -24t-41.5 -47.5t-14.5 -75 q0 -132 121 -187q73 -34 266 -69q10 -45 10 -62q0 -51 -27 -81.5t-79 -30.5q-87 0 -172 59.5t-140 158.5t-55 204zM367 731q0 45 34 79t84 34q49 0 83 -34t34 -79t-34 -79t-83 -34q-50 0 -84 34t-34 79z" />
<glyph unicode="&#xc0;" horiz-adv-x="1269" d="M-70 0v47q74 3 121 19.5t76 54.5q132 324 186 471q158 427 213 592q7 21 12 37.5t7.5 31t3.5 22.5t2 23t2 21h211q0 -4 2 -24t2.5 -24t2.5 -19t3 -21.5t3.5 -19.5t6 -24.5t7.5 -25.5q68 -217 182 -561q88 -260 164 -463q31 -83 194 -90v-47h-577v47q75 3 128.5 21 t67.5 49l-145 424h-404l-143 -400q17 -37 73 -64t126 -30v-47h-527zM401 1784q14 49 51 71.5t85 22.5q12 0 18 -2l223 -414l-43 -26zM432 631h342l-131 422l-27 112h-8l-30 -112z" />
<glyph unicode="&#xc1;" horiz-adv-x="1269" d="M-70 0v47q74 3 121 19.5t76 54.5q132 324 186 471q158 427 213 592q7 21 12 37.5t7.5 31t3.5 22.5t2 23t2 21h211q0 -4 2 -24t2.5 -24t2.5 -19t3 -21.5t3.5 -19.5t6 -24.5t7.5 -25.5q68 -217 182 -561q88 -260 164 -463q31 -83 194 -90v-47h-577v47q75 3 128.5 21 t67.5 49l-145 424h-404l-143 -400q17 -37 73 -64t126 -30v-47h-527zM432 631h342l-131 422l-27 112h-8l-30 -112zM539 1462l223 414q6 2 20 2q46 0 84 -22.5t52 -71.5l-334 -348z" />
<glyph unicode="&#xc2;" horiz-adv-x="1269" d="M-70 0v47q74 3 121 19.5t76 54.5q132 324 186 471q158 427 213 592q7 21 12 37.5t7.5 31t3.5 22.5t2 23t2 21h211q0 -4 2 -24t2.5 -24t2.5 -19t3 -21.5t3.5 -19.5t6 -24.5t7.5 -25.5q68 -217 182 -561q88 -260 164 -463q31 -83 194 -90v-47h-577v47q75 3 128.5 21 t67.5 49l-145 424h-404l-143 -400q17 -37 73 -64t126 -30v-47h-527zM334 1448l276 416h78l277 -416l-47 -27l-269 265l-270 -265zM432 631h342l-131 422l-27 112h-8l-30 -112z" />
<glyph unicode="&#xc3;" horiz-adv-x="1269" d="M-70 0v47q74 3 121 19.5t76 54.5q132 324 186 471q158 427 213 592q7 21 12 37.5t7.5 31t3.5 22.5t2 23t2 21h211q0 -4 2 -24t2.5 -24t2.5 -19t3 -21.5t3.5 -19.5t6 -24.5t7.5 -25.5q68 -217 182 -561q88 -260 164 -463q31 -83 194 -90v-47h-577v47q75 3 128.5 21 t67.5 49l-145 424h-404l-143 -400q17 -37 73 -64t126 -30v-47h-527zM305 1464q4 26 21.5 64.5t45.5 80t70.5 70.5t87.5 29q18 0 37 -3t39 -9t32 -10t30 -11t20 -8q78 -33 146 -33q64 31 108 111h49q-6 -20 -17.5 -47t-32.5 -62t-46.5 -63.5t-61 -48t-73.5 -19.5 q-17 0 -35 2.5t-37.5 7.5t-29.5 8t-31 10.5t-23 8.5q-26 13 -69 25t-74 12q-76 -39 -107 -115h-49zM432 631h342l-131 422l-27 112h-8l-30 -112z" />
<glyph unicode="&#xc4;" horiz-adv-x="1269" d="M-70 0v47q74 3 121 19.5t76 54.5q132 324 186 471q158 427 213 592q7 21 12 37.5t7.5 31t3.5 22.5t2 23t2 21h211q0 -4 2 -24t2.5 -24t2.5 -19t3 -21.5t3.5 -19.5t6 -24.5t7.5 -25.5q68 -217 182 -561q88 -260 164 -463q31 -83 194 -90v-47h-577v47q75 3 128.5 21 t67.5 49l-145 424h-404l-143 -400q17 -37 73 -64t126 -30v-47h-527zM322 1597q0 41 32 75t78 34q45 0 76 -33.5t31 -75.5q0 -40 -30.5 -72t-76.5 -32t-78 32t-32 72zM432 631h342l-131 422l-27 112h-8l-30 -112zM778 1597q0 42 31.5 75.5t77.5 33.5q47 0 78.5 -33.5 t31.5 -75.5q0 -40 -31 -72t-79 -32q-46 0 -77.5 32t-31.5 72z" />
<glyph unicode="&#xc5;" horiz-adv-x="1269" d="M-70 0v47q74 3 121 19.5t76 54.5q132 324 186 471q158 427 213 592q7 21 12 37.5t7.5 31t3.5 22.5t2 23t2 21h211q0 -4 2 -24t2.5 -24t2.5 -19t3 -21.5t3.5 -19.5t6 -24.5t7.5 -25.5q68 -217 182 -561q88 -260 164 -463q31 -83 194 -90v-47h-577v47q75 3 128.5 21 t67.5 49l-145 424h-404l-143 -400q17 -37 73 -64t126 -30v-47h-527zM406 1612q0 95 71 156t178 61q108 0 175 -59.5t67 -157.5q0 -95 -71.5 -158t-176.5 -63q-110 0 -176.5 59.5t-66.5 161.5zM432 631h342l-131 422l-27 112h-8l-30 -112zM532 1634q0 -84 36.5 -141 t101.5 -57q48 0 76 45t28 108q0 88 -36.5 141.5t-106.5 53.5q-43 0 -71 -46.5t-28 -103.5z" />
<glyph unicode="&#xc6;" horiz-adv-x="1908" d="M-98 0v47q62 3 118.5 29.5t69.5 44.5l729 1069q-25 20 -87 39t-118 24v45h953q72 0 123 15h39v-330h-43q-6 129 -62 176t-178 47h-295v-526h276q48 0 74.5 2t55 10.5t43.5 25.5t27 46t18 74h38v-412h-43q-3 36 -9.5 61t-12.5 43t-21 29.5t-26 18t-37.5 9t-44 3t-57.5 0.5 h-5h-276v-430q12 -54 55 -70l320 6q113 2 173.5 56t63.5 178h41v-330h-1073v47q197 8 234 94v445h-441l-293 -445q6 -36 66.5 -63.5t132.5 -30.5v-47h-528zM584 676h381v545h-35l-66 -127z" />
<glyph unicode="&#xc7;" horiz-adv-x="1355" d="M80 662q0 192 96.5 345t259.5 236.5t361 83.5q48 0 94 -3.5t78 -7t78 -13t67.5 -14.5t73.5 -18l72 -18v-338h-46q-16 182 -122 246q-74 46 -139 64q-84 24 -187 24q-144 0 -253.5 -74.5t-164.5 -195.5t-55 -268q0 -291 157 -475.5t414 -184.5q77 0 137 20t91 46 q58 46 102 116t59 142l50 -13l-72 -317q-11 -3 -40 -12.5t-38 -12.5t-33 -10t-34.5 -9.5t-32.5 -7.5t-37 -6.5t-37.5 -4.5t-45.5 -4.5t-50 -2.5q-33 -29 -58.5 -60.5t-25.5 -43.5q0 -10 6 -20t13 -16t24.5 -19.5t27.5 -22.5q45 -35 61.5 -59.5t16.5 -61.5q0 -26 -18.5 -63 t-48.5 -68q-100 -100 -183 -100q-65 0 -108 25.5t-43 64.5q0 28 18 49t41 21q27 0 58 -25q1 -1 13.5 -10t15 -10.5t13.5 -8t16.5 -8.5t14.5 -6t17.5 -5t17.5 -1q29 0 51.5 20.5t22.5 46.5q0 11 -3.5 20.5t-15 21t-19 18t-31.5 24t-36 27.5q-27 20 -39 31t-22 26.5t-10 32.5 q0 59 145 178h-22q-152 0 -285 53.5t-226.5 145.5t-147.5 219.5t-54 270.5z" />
<glyph unicode="&#xc8;" horiz-adv-x="1196" d="M-12 -6v47q86 4 165 29t99 71v1041q-13 30 -67.5 49t-127.5 22v45h797q72 0 123 15h39v-330h-43q-6 129 -62 176t-178 47h-295v-495h277q32 0 48 0.5t40.5 2t36 5.5t27.5 11t24 18t17.5 27t14.5 37.5t9 49.5h39v-416h-43q-3 36 -9.5 61t-12.5 43t-21 29.5t-26 18t-37.5 9 t-44 3t-57.5 0.5h-5h-277v-450q12 -53 56 -70l319 6q113 2 174 56t64 178h41v-330h-680zM375 1784q27 94 135 94q12 0 18 -2l224 -414l-43 -26z" />
<glyph unicode="&#xc9;" horiz-adv-x="1196" d="M-12 -6v47q86 4 165 29t99 71v1041q-13 30 -67.5 49t-127.5 22v45h797q72 0 123 15h39v-330h-43q-6 129 -62 176t-178 47h-295v-495h277q32 0 48 0.5t40.5 2t36 5.5t27.5 11t24 18t17.5 27t14.5 37.5t9 49.5h39v-416h-43q-3 36 -9.5 61t-12.5 43t-21 29.5t-26 18t-37.5 9 t-44 3t-57.5 0.5h-5h-277v-450q12 -53 56 -70l319 6q113 2 174 56t64 178h41v-330h-680zM500 1462l223 414q6 2 20 2q46 0 84 -22.5t52 -71.5l-334 -348z" />
<glyph unicode="&#xca;" horiz-adv-x="1196" d="M-12 -6v47q86 4 165 29t99 71v1041q-13 30 -67.5 49t-127.5 22v45h797q72 0 123 15h39v-330h-43q-6 129 -62 176t-178 47h-295v-495h277q32 0 48 0.5t40.5 2t36 5.5t27.5 11t24 18t17.5 27t14.5 37.5t9 49.5h39v-416h-43q-3 36 -9.5 61t-12.5 43t-21 29.5t-26 18t-37.5 9 t-44 3t-57.5 0.5h-5h-277v-450q12 -53 56 -70l319 6q113 2 174 56t64 178h41v-330h-680zM287 1462l276 416h78l277 -416l-48 -26l-268 264l-270 -264z" />
<glyph unicode="&#xcb;" horiz-adv-x="1196" d="M-12 -6v47q86 4 165 29t99 71v1041q-13 30 -67.5 49t-127.5 22v45h797q72 0 123 15h39v-330h-43q-6 129 -62 176t-178 47h-295v-495h277q32 0 48 0.5t40.5 2t36 5.5t27.5 11t24 18t17.5 27t14.5 37.5t9 49.5h39v-416h-43q-3 36 -9.5 61t-12.5 43t-21 29.5t-26 18t-37.5 9 t-44 3t-57.5 0.5h-5h-277v-450q12 -53 56 -70l319 6q113 2 174 56t64 178h41v-330h-680zM268 1597q0 41 32.5 75t78.5 34q45 0 75.5 -33.5t30.5 -75.5q0 -40 -30.5 -72t-75.5 -32q-46 0 -78.5 32t-32.5 72zM725 1597q0 42 31.5 75.5t77.5 33.5q47 0 78.5 -33.5t31.5 -75.5 q0 -40 -31 -72t-79 -32q-46 0 -77.5 32t-31.5 72z" />
<glyph unicode="&#xcc;" horiz-adv-x="706" d="M55 0v47q75 3 133.5 22.5t71.5 49.5v1063q-13 30 -71.5 50t-133.5 23v45h596v-45q-75 -3 -133.5 -23t-71.5 -50v-1063q13 -30 71.5 -49.5t133.5 -22.5v-47h-596zM143 1784q14 49 51 71.5t85 22.5q12 0 18 -2l223 -414l-43 -26z" />
<glyph unicode="&#xcd;" horiz-adv-x="706" d="M55 0v47q75 3 133.5 22.5t71.5 49.5v1063q-13 30 -71.5 50t-133.5 23v45h596v-45q-75 -3 -133.5 -23t-71.5 -50v-1063q13 -30 71.5 -49.5t133.5 -22.5v-47h-596zM207 1462l223 414q6 2 19 2q108 0 135 -94l-334 -348z" />
<glyph unicode="&#xce;" horiz-adv-x="706" d="M39 1462l276 416h78l277 -416l-47 -26l-269 264l-270 -264zM55 0v47q75 3 133.5 22.5t71.5 49.5v1063q-13 30 -71.5 50t-133.5 23v45h596v-45q-75 -3 -133.5 -23t-71.5 -50v-1063q13 -30 71.5 -49.5t133.5 -22.5v-47h-596z" />
<glyph unicode="&#xcf;" horiz-adv-x="706" d="M37 1597q0 41 32 75t78 34q45 0 76 -33.5t31 -75.5q0 -40 -30.5 -72t-76.5 -32t-78 32t-32 72zM55 0v47q75 3 133.5 22.5t71.5 49.5v1063q-13 30 -71.5 50t-133.5 23v45h596v-45q-75 -3 -133.5 -23t-71.5 -50v-1063q13 -30 71.5 -49.5t133.5 -22.5v-47h-596zM451 1597 q0 42 31 75.5t77 33.5q48 0 79.5 -33.5t31.5 -75.5q0 -40 -31.5 -72t-79.5 -32q-46 0 -77 32t-31 72z" />
<glyph unicode="&#xd0;" horiz-adv-x="1484" d="M41 1255v45q67 3 211.5 10t235 10t171.5 3q348 0 547 -168.5t199 -460.5q0 -147 -54 -277t-147.5 -222t-224.5 -145t-279 -52l-649 2v47q73 3 130.5 22.5t70.5 49.5v504h-203v84h203v475q-13 30 -75 50t-136 23zM438 133q19 -22 94 -42.5t138 -20.5q169 0 289 71 t178.5 194t58.5 286q0 308 -165.5 469t-461.5 161h-131v-544h387v-84h-387v-490z" />
<glyph unicode="&#xd1;" horiz-adv-x="1591" d="M51 1255v45h361l116 -145l719 -846v506q0 35 -10 350q-15 31 -86.5 59t-142.5 31v45h546v-45q-69 -3 -123.5 -30t-70.5 -60v-796q0 -213 12 -385h-80l-823 968l-102 146h-7l7 -133v-478q0 -64 5.5 -196l6.5 -156q15 -31 86.5 -58t142.5 -30v-47h-555v47q70 3 127.5 29.5 t71.5 58.5v746q0 225 -10 290q-16 32 -69.5 56.5t-121.5 27.5zM502 1479q4 26 21.5 64.5t45.5 79.5t70.5 70t87.5 29q18 0 37 -3t39 -9t32 -10t30 -11t20 -8q75 -32 145 -32q66 32 109 110h49q-7 -26 -25 -62t-46.5 -78t-71.5 -70.5t-89 -28.5q-50 0 -155 36 q-26 13 -69.5 25t-74.5 12q-75 -38 -106 -114h-49z" />
<glyph unicode="&#xd2;" horiz-adv-x="1529" d="M80 643q0 195 97.5 353t263.5 245.5t366 87.5q151 0 273.5 -50t203 -139t123.5 -209.5t43 -262.5q0 -201 -98 -362t-264 -249t-367 -88q-199 0 -345.5 87t-221 238.5t-74.5 348.5zM287 707q0 -140 36 -259.5t102.5 -207.5t168 -137.5t227.5 -49.5q81 0 157.5 39.5 t135 109t94 172.5t35.5 222q0 293 -149 472t-400 179q-77 0 -150.5 -40.5t-130.5 -110t-91.5 -172t-34.5 -217.5zM575 1784q14 49 51 71.5t85 22.5q12 0 18 -2l223 -414l-43 -26z" />
<glyph unicode="&#xd3;" horiz-adv-x="1529" d="M80 643q0 195 97.5 353t263.5 245.5t366 87.5q151 0 273.5 -50t203 -139t123.5 -209.5t43 -262.5q0 -201 -98 -362t-264 -249t-367 -88q-199 0 -345.5 87t-221 238.5t-74.5 348.5zM287 707q0 -140 36 -259.5t102.5 -207.5t168 -137.5t227.5 -49.5q81 0 157.5 39.5 t135 109t94 172.5t35.5 222q0 293 -149 472t-400 179q-77 0 -150.5 -40.5t-130.5 -110t-91.5 -172t-34.5 -217.5zM662 1462l223 414q6 2 20 2q46 0 83.5 -22.5t51.5 -71.5l-333 -348z" />
<glyph unicode="&#xd4;" horiz-adv-x="1529" d="M80 643q0 195 97.5 353t263.5 245.5t366 87.5q151 0 273.5 -50t203 -139t123.5 -209.5t43 -262.5q0 -201 -98 -362t-264 -249t-367 -88q-199 0 -345.5 87t-221 238.5t-74.5 348.5zM287 707q0 -140 36 -259.5t102.5 -207.5t168 -137.5t227.5 -49.5q81 0 157.5 39.5 t135 109t94 172.5t35.5 222q0 293 -149 472t-400 179q-77 0 -150.5 -40.5t-130.5 -110t-91.5 -172t-34.5 -217.5zM479 1462l277 416h78l276 -416l-47 -26l-268 264l-271 -264z" />
<glyph unicode="&#xd5;" horiz-adv-x="1529" d="M80 643q0 195 97.5 353t263.5 245.5t366 87.5q151 0 273.5 -50t203 -139t123.5 -209.5t43 -262.5q0 -201 -98 -362t-264 -249t-367 -88q-199 0 -345.5 87t-221 238.5t-74.5 348.5zM287 707q0 -140 36 -259.5t102.5 -207.5t168 -137.5t227.5 -49.5q81 0 157.5 39.5 t135 109t94 172.5t35.5 222q0 293 -149 472t-400 179q-77 0 -150.5 -40.5t-130.5 -110t-91.5 -172t-34.5 -217.5zM451 1479q4 26 21.5 64.5t45.5 79.5t70.5 70t87.5 29q18 0 37 -3t39 -9t32 -10t30 -11t20 -8q75 -32 145 -32q65 32 108 110h50q-7 -26 -25 -62t-46.5 -78 t-71.5 -70.5t-89 -28.5q-50 0 -155 36q-26 13 -69.5 25t-74.5 12q-75 -38 -106 -114h-49z" />
<glyph unicode="&#xd6;" horiz-adv-x="1529" d="M80 643q0 195 97.5 353t263.5 245.5t366 87.5q151 0 273.5 -50t203 -139t123.5 -209.5t43 -262.5q0 -201 -98 -362t-264 -249t-367 -88q-199 0 -345.5 87t-221 238.5t-74.5 348.5zM287 707q0 -140 36 -259.5t102.5 -207.5t168 -137.5t227.5 -49.5q81 0 157.5 39.5 t135 109t94 172.5t35.5 222q0 293 -149 472t-400 179q-77 0 -150.5 -40.5t-130.5 -110t-91.5 -172t-34.5 -217.5zM459 1597q0 41 32 75t78 34q45 0 76 -33.5t31 -75.5q0 -40 -30.5 -72t-76.5 -32t-78 32t-32 72zM915 1597q0 42 31.5 75.5t77.5 33.5q48 0 79.5 -33.5 t31.5 -75.5q0 -40 -31.5 -72t-79.5 -32q-46 0 -77.5 32t-31.5 72z" />
<glyph unicode="&#xd7;" horiz-adv-x="1222" d="M215 172l322 320l-322 317l76 78l319 -322l320 322l76 -78l-322 -317l322 -320l-76 -78l-320 322l-319 -322z" />
<glyph unicode="&#xd8;" horiz-adv-x="1529" d="M80 643q0 195 97.5 353t263.5 245.5t366 87.5q149 0 270 -51l97 166h81l-114 -199q147 -81 228 -233.5t81 -343.5q0 -201 -98 -362t-264 -249t-367 -88q-153 0 -277 56l-110 -195h-78l127 225q-143 85 -223 239t-80 349zM281 707q0 -163 46 -298t134 -223l549 969 q-134 92 -318 92q-79 0 -153.5 -40.5t-131.5 -110t-91.5 -172t-34.5 -217.5zM514 145q128 -92 309 -92q83 0 160 39.5t136 109t94.5 172.5t35.5 222q0 164 -47.5 298t-136.5 220z" />
<glyph unicode="&#xd9;" horiz-adv-x="1538" d="M43 1255v45h573v-45q-72 -3 -126.5 -23t-69.5 -50v-678q0 -196 99.5 -304t283.5 -108q194 0 291.5 115t97.5 338v266q0 39 -10 354q-15 31 -85.5 59t-142.5 31v45h541v-45q-66 -3 -120 -30t-70 -60v-655q0 -138 -41 -243.5t-115 -170t-173 -97t-220 -32.5 q-246 0 -384.5 133t-138.5 373v709q-15 30 -67.5 50t-122.5 23zM553 1784q27 94 135 94q13 0 19 -2l223 -414l-43 -26z" />
<glyph unicode="&#xda;" horiz-adv-x="1538" d="M43 1255v45h573v-45q-72 -3 -126.5 -23t-69.5 -50v-678q0 -196 99.5 -304t283.5 -108q194 0 291.5 115t97.5 338v266q0 39 -10 354q-15 31 -85.5 59t-142.5 31v45h541v-45q-66 -3 -120 -30t-70 -60v-655q0 -138 -41 -243.5t-115 -170t-173 -97t-220 -32.5 q-246 0 -384.5 133t-138.5 373v709q-15 30 -67.5 50t-122.5 23zM662 1462l223 414q6 2 20 2q46 0 83.5 -22.5t51.5 -71.5l-333 -348z" />
<glyph unicode="&#xdb;" horiz-adv-x="1538" d="M43 1255v45h573v-45q-72 -3 -126.5 -23t-69.5 -50v-678q0 -196 99.5 -304t283.5 -108q194 0 291.5 115t97.5 338v266q0 39 -10 354q-15 31 -85.5 59t-142.5 31v45h541v-45q-66 -3 -120 -30t-70 -60v-655q0 -138 -41 -243.5t-115 -170t-173 -97t-220 -32.5 q-246 0 -384.5 133t-138.5 373v709q-15 30 -67.5 50t-122.5 23zM479 1462l277 416h78l276 -416l-47 -26l-268 264l-271 -264z" />
<glyph unicode="&#xdc;" horiz-adv-x="1538" d="M43 1255v45h573v-45q-72 -3 -126.5 -23t-69.5 -50v-678q0 -196 99.5 -304t283.5 -108q194 0 291.5 115t97.5 338v266q0 39 -10 354q-15 31 -85.5 59t-142.5 31v45h541v-45q-66 -3 -120 -30t-70 -60v-655q0 -138 -41 -243.5t-115 -170t-173 -97t-220 -32.5 q-246 0 -384.5 133t-138.5 373v709q-15 30 -67.5 50t-122.5 23zM463 1597q0 41 32 75t78 34q45 0 76 -33.5t31 -75.5q0 -40 -30.5 -72t-76.5 -32t-78 32t-32 72zM920 1597q0 42 31 75.5t77 33.5q48 0 79.5 -33.5t31.5 -75.5q0 -40 -31.5 -72t-79.5 -32q-46 0 -77 32t-31 72z " />
<glyph unicode="&#xdd;" horiz-adv-x="1234" d="M-49 1255v45h565v-45q-51 -3 -86.5 -11.5t-51 -17.5t-34.5 -24l324 -549l319 545q-24 18 -36.5 26t-48.5 18t-87 13v45h467v-45q-85 -4 -133.5 -35t-93.5 -106l-340 -559v-397q15 -34 39.5 -57t58 -33.5t62.5 -14.5t71 -6v-47h-653v47q200 8 237 82v408l-352 579 q-45 73 -94 104t-133 35zM518 1462l223 414q6 2 21 2q46 0 83.5 -22.5t51.5 -71.5l-334 -348z" />
<glyph unicode="&#xde;" horiz-adv-x="1157" d="M41 0v47q175 7 211 92v1039q-14 34 -69.5 54t-129.5 23v45h588v-47q-165 -7 -203 -86v-102h125q263 0 389.5 -98.5t126.5 -276.5q0 -182 -129 -299t-360 -117q-46 0 -152 27v-156q20 -46 83.5 -70.5t142.5 -27.5v-47h-623zM438 354q45 -8 119 -8q152 0 236 96t84 256 q0 125 -81.5 209t-224.5 84q-86 0 -133 -4v-633z" />
<glyph unicode="&#xdf;" horiz-adv-x="1130" d="M47 0v47q106 5 135 62v763q0 178 58 306q15 32 37 65.5t58.5 71.5t78.5 67t99.5 48.5t119.5 19.5q146 0 229.5 -74.5t83.5 -177.5q0 -19 -2 -35.5t-8 -33.5t-9.5 -28t-16 -28t-16.5 -23.5t-22 -24.5t-21.5 -22t-26 -25t-25.5 -24q-45 -45 -65.5 -79.5t-20.5 -83.5 q0 -57 38 -102t107 -93q105 -73 140 -109q79 -81 79 -198q0 -132 -96.5 -220.5t-220.5 -88.5q-109 0 -205 47l-25 229h45q37 -91 95 -154t84 -63q76 0 126 47.5t50 118.5q0 74 -39 126.5t-117 108.5q-16 11 -49.5 33t-51.5 34.5t-43.5 36.5t-39 45.5t-23.5 54.5t-10 71 t9.5 68.5t29 56t37.5 43.5t48.5 44.5t47.5 43.5q76 76 76 176q0 86 -68.5 152.5t-161.5 66.5q-80 0 -132.5 -62.5t-74.5 -160.5t-22 -228v-806q20 -32 54.5 -44t84.5 -14v-51h-438z" />
<glyph unicode="&#xe0;" horiz-adv-x="882" d="M76 168q0 114 41 172l424 149l2 144q2 73 -49.5 134.5t-120.5 61.5q-43 0 -75.5 -49t-35.5 -123l-166 -30v22q20 61 68 112.5t103.5 81.5t107.5 47t88 17q134 0 191 -65.5t55 -190.5l-9 -442q-1 -58 24 -84.5t62 -26.5q31 0 54 11t65 41v-54q-40 -42 -104.5 -78 t-110.5 -36q-70 0 -108.5 43t-40.5 88q-54 -56 -128.5 -93.5t-131.5 -37.5q-81 0 -143 50.5t-62 135.5zM213 1362q31 94 139 94q13 0 19 -2l200 -414l-43 -26zM258 205q0 -48 26 -83.5t70 -35.5q58 0 96 14.5t89 51.5l2 288q-16 -7 -125.5 -52t-143.5 -64q-14 -58 -14 -119z " />
<glyph unicode="&#xe1;" horiz-adv-x="882" d="M76 168q0 114 41 172l424 149l2 144q2 73 -49.5 134.5t-120.5 61.5q-43 0 -75.5 -49t-35.5 -123l-166 -30v22q20 61 68 112.5t103.5 81.5t107.5 47t88 17q134 0 191 -65.5t55 -190.5l-9 -442q-1 -58 24 -84.5t62 -26.5q31 0 54 11t65 41v-54q-40 -42 -104.5 -78 t-110.5 -36q-70 0 -108.5 43t-40.5 88q-54 -56 -128.5 -93.5t-131.5 -37.5q-81 0 -143 50.5t-62 135.5zM258 205q0 -48 26 -83.5t70 -35.5q58 0 96 14.5t89 51.5l2 288q-16 -7 -125.5 -52t-143.5 -64q-14 -58 -14 -119zM332 1040l200 414q6 2 21 2q46 0 83.5 -22.5 t53.5 -71.5l-315 -348z" />
<glyph unicode="&#xe2;" horiz-adv-x="882" d="M76 168q0 114 41 172l424 149l2 144q2 73 -49.5 134.5t-120.5 61.5q-43 0 -75.5 -49t-35.5 -123l-166 -30v22q20 61 68 112.5t103.5 81.5t107.5 47t88 17q134 0 191 -65.5t55 -190.5l-9 -442q-1 -58 24 -84.5t62 -26.5q31 0 54 11t65 41v-54q-40 -42 -104.5 -78 t-110.5 -36q-70 0 -108.5 43t-40.5 88q-54 -56 -128.5 -93.5t-131.5 -37.5q-81 0 -143 50.5t-62 135.5zM131 1040l256 416h76l258 -416l-47 -26l-248 264l-250 -264zM258 205q0 -48 26 -83.5t70 -35.5q58 0 96 14.5t89 51.5l2 288q-16 -7 -125.5 -52t-143.5 -64 q-14 -58 -14 -119z" />
<glyph unicode="&#xe3;" horiz-adv-x="882" d="M76 168q0 114 41 172l424 149l2 144q2 73 -49.5 134.5t-120.5 61.5q-43 0 -75.5 -49t-35.5 -123l-166 -30v22q20 61 68 112.5t103.5 81.5t107.5 47t88 17q134 0 191 -65.5t55 -190.5l-9 -442q-1 -58 24 -84.5t62 -26.5q31 0 54 11t65 41v-54q-40 -42 -104.5 -78 t-110.5 -36q-70 0 -108.5 43t-40.5 88q-54 -56 -128.5 -93.5t-131.5 -37.5q-81 0 -143 50.5t-62 135.5zM111 1094q5 27 20.5 64.5t40 80t63 71.5t80.5 29q17 0 35 -3t36.5 -9t29.5 -10t28.5 -11.5t18.5 -7.5q88 -34 137 -34q34 19 53 44.5t39 69.5h47q-5 -27 -20.5 -63.5 t-40 -79t-63.5 -71.5t-83 -29q-55 0 -147 39q-97 36 -135 36q-60 -34 -92 -116h-47zM258 205q0 -48 26 -83.5t70 -35.5q58 0 96 14.5t89 51.5l2 288q-16 -7 -125.5 -52t-143.5 -64q-14 -58 -14 -119z" />
<glyph unicode="&#xe4;" horiz-adv-x="882" d="M76 168q0 114 41 172l424 149l2 144q2 73 -49.5 134.5t-120.5 61.5q-43 0 -75.5 -49t-35.5 -123l-166 -30v22q20 61 68 112.5t103.5 81.5t107.5 47t88 17q134 0 191 -65.5t55 -190.5l-9 -442q-1 -58 24 -84.5t62 -26.5q31 0 54 11t65 41v-54q-40 -42 -104.5 -78 t-110.5 -36q-70 0 -108.5 43t-40.5 88q-54 -56 -128.5 -93.5t-131.5 -37.5q-81 0 -143 50.5t-62 135.5zM109 1202q0 41 31 74t77 33t76.5 -32.5t30.5 -74.5q0 -40 -30.5 -71t-76.5 -31t-77 31t-31 71zM258 205q0 -48 26 -83.5t70 -35.5q58 0 96 14.5t89 51.5l2 288 q-16 -7 -125.5 -52t-143.5 -64q-14 -58 -14 -119zM530 1202q0 41 31.5 74t77.5 33t76 -32.5t30 -74.5q0 -40 -30 -71t-76 -31t-77.5 31t-31.5 71z" />
<glyph unicode="&#xe5;" horiz-adv-x="882" d="M76 168q0 114 41 172l424 149l2 144q2 73 -49.5 134.5t-120.5 61.5q-43 0 -75.5 -49t-35.5 -123l-166 -30v22q20 61 68 112.5t103.5 81.5t107.5 47t88 17q134 0 191 -65.5t55 -190.5l-9 -442q-1 -58 24 -84.5t62 -26.5q31 0 54 11t65 41v-54q-40 -42 -104.5 -78 t-110.5 -36q-70 0 -108.5 43t-40.5 88q-54 -56 -128.5 -93.5t-131.5 -37.5q-81 0 -143 50.5t-62 135.5zM197 1239q0 95 69 156t172 61q105 0 169.5 -59.5t64.5 -157.5q0 -95 -69 -158t-171 -63q-107 0 -171 59.5t-64 161.5zM258 205q0 -48 26 -83.5t70 -35.5q58 0 96 14.5 t89 51.5l2 288q-16 -7 -125.5 -52t-143.5 -64q-14 -58 -14 -119zM315 1262q0 -84 36.5 -141.5t101.5 -57.5q48 0 76 45.5t28 108.5q0 88 -36.5 141t-106.5 53q-43 0 -71 -46.5t-28 -102.5z" />
<glyph unicode="&#xe6;" horiz-adv-x="1290" d="M76 164q0 112 41 170l432 147v140q0 87 -50 146.5t-130 59.5q-39 0 -72.5 -49t-34.5 -123l-168 -28v18q19 66 66 119.5t103 83t107 44.5t89 15q163 0 225 -121q52 55 122.5 88t135.5 33q148 0 213 -73t76 -220l-520 -155q0 -55 11 -118t26 -101q29 -74 83.5 -101.5 t143.5 -27.5q125 0 246 118l32 -49q-166 -192 -387 -192q-90 0 -162.5 39.5t-113.5 107.5q-60 -70 -150.5 -110.5t-158.5 -40.5q-81 0 -143 48.5t-62 131.5zM258 199q0 -47 27.5 -80t74.5 -33q133 0 215 88q-26 114 -26 256q-15 -8 -130 -54.5t-149 -66.5q-12 -49 -12 -110z M711 510l352 123q-9 79 -52 146t-110 67q-87 0 -137 -87t-53 -249z" />
<glyph unicode="&#xe7;" horiz-adv-x="808" d="M63 391q0 115 39.5 212.5t106.5 163t155 102t185 36.5q102 0 165 -34t72 -70q-4 -26 -23.5 -67t-39.5 -52q-32 12 -81.5 43t-104.5 56t-123 36q-80 -18 -129 -108t-49 -242q0 -170 84.5 -266.5t222.5 -96.5q129 0 217 121l37 -47q-21 -24 -39.5 -43t-38 -35t-32 -25 t-36.5 -25.5t-35 -24.5q-39 -28 -69.5 -59.5t-42.5 -51t-12 -25.5q0 -14 8.5 -24t31.5 -25.5t35 -25.5q45 -38 61.5 -62.5t16.5 -60.5q0 -23 -18 -59.5t-47 -67.5q-38 -41 -84.5 -70t-87.5 -29q-62 0 -104 24t-42 62q0 29 18 49.5t42 20.5q22 0 53 -22q3 -3 17.5 -14 t20.5 -15t18.5 -11t23 -9.5t22.5 -2.5q27 0 48.5 22.5t21.5 49.5q0 6 -1 12t-4 12t-5.5 10.5t-9 10.5t-10.5 10t-13.5 11.5t-15.5 12.5t-18.5 14.5t-20.5 15.5q-5 4 -18.5 15t-17.5 15l-13 13t-12 14.5t-6 13.5t-3 17q0 63 151 186q-47 -16 -96 -16q-162 0 -266.5 110.5 t-104.5 294.5z" />
<glyph unicode="&#xe8;" horiz-adv-x="856" d="M63 401q0 224 121 364t308 140q303 0 303 -303v-35l-559 4q-5 -45 -5 -110q0 -158 91.5 -258.5t222.5 -100.5q81 0 127 23t121 88l30 -47q-105 -97 -187.5 -139.5t-199.5 -42.5q-160 0 -266.5 116.5t-106.5 300.5zM244 627l385 4q0 84 -52.5 148.5t-121.5 64.5 q-82 0 -138 -58t-73 -159zM250 1362q16 49 54.5 71.5t84.5 22.5q15 0 21 -2l200 -414l-45 -26z" />
<glyph unicode="&#xe9;" horiz-adv-x="856" d="M63 401q0 224 121 364t308 140q303 0 303 -303v-35l-559 4q-5 -45 -5 -110q0 -158 91.5 -258.5t222.5 -100.5q81 0 127 23t121 88l30 -47q-105 -97 -187.5 -139.5t-199.5 -42.5q-160 0 -266.5 116.5t-106.5 300.5zM244 627l385 4q0 84 -52.5 148.5t-121.5 64.5 q-82 0 -138 -58t-73 -159zM383 1040l201 414q6 2 20 2q46 0 84.5 -22.5t54.5 -71.5l-315 -348z" />
<glyph unicode="&#xea;" horiz-adv-x="856" d="M63 401q0 224 121 364t308 140q303 0 303 -303v-35l-559 4q-5 -45 -5 -110q0 -158 91.5 -258.5t222.5 -100.5q81 0 127 23t121 88l30 -47q-105 -97 -187.5 -139.5t-199.5 -42.5q-160 0 -266.5 116.5t-106.5 300.5zM180 1040l258 416h76l256 -416l-45 -26l-250 264 l-248 -264zM244 627l385 4q0 84 -52.5 148.5t-121.5 64.5q-82 0 -138 -58t-73 -159z" />
<glyph unicode="&#xeb;" horiz-adv-x="856" d="M63 401q0 224 121 364t308 140q303 0 303 -303v-35l-559 4q-5 -45 -5 -110q0 -158 91.5 -258.5t222.5 -100.5q81 0 127 23t121 88l30 -47q-105 -97 -187.5 -139.5t-199.5 -42.5q-160 0 -266.5 116.5t-106.5 300.5zM158 1202q0 41 31.5 74t76.5 33q47 0 77 -32.5t30 -74.5 q0 -40 -30 -71t-77 -31q-45 0 -76.5 31.5t-31.5 70.5zM244 627l385 4q0 84 -52.5 148.5t-121.5 64.5q-82 0 -138 -58t-73 -159zM584 1202q0 41 31.5 74t76.5 33q46 0 76.5 -32.5t30.5 -74.5q0 -40 -30.5 -71t-76.5 -31q-45 0 -76.5 31.5t-31.5 70.5z" />
<glyph unicode="&#xec;" horiz-adv-x="538" d="M27 1362q14 49 52 71.5t85 22.5q14 0 20 -2l201 -414l-43 -26zM63 0v49q70 6 95.5 19t42.5 43l2 557q0 38 -28.5 64.5t-102.5 45.5v37l264 96h24v-800q18 -32 41.5 -43.5t96.5 -18.5v-49h-435z" />
<glyph unicode="&#xed;" horiz-adv-x="538" d="M63 0v49q70 6 95.5 19t42.5 43l2 557q0 38 -28.5 64.5t-102.5 45.5v37l264 96h24v-800q18 -32 41.5 -43.5t96.5 -18.5v-49h-435zM133 1040l201 414q6 2 18 2q48 0 86 -22.5t54 -71.5l-316 -348z" />
<glyph unicode="&#xee;" horiz-adv-x="538" d="M-20 1040l237 416h76l237 -416l-47 -26l-229 264l-227 -264zM63 0v49q70 6 95.5 19t42.5 43l2 557q0 38 -28.5 64.5t-102.5 45.5v37l264 96h24v-800q18 -32 41.5 -43.5t96.5 -18.5v-49h-435z" />
<glyph unicode="&#xef;" horiz-adv-x="538" d="M-37 1202q0 41 32 74t77 33q47 0 76.5 -32.5t29.5 -74.5q0 -41 -29.5 -71.5t-76.5 -30.5q-45 0 -77 31.5t-32 70.5zM63 0v49q70 6 95.5 19t42.5 43l2 557q0 38 -28.5 64.5t-102.5 45.5v37l264 96h24v-800q18 -32 41.5 -43.5t96.5 -18.5v-49h-435zM348 1202q0 41 32 74 t77 33q47 0 76.5 -32.5t29.5 -74.5q0 -41 -29.5 -71.5t-76.5 -30.5q-45 0 -77 31.5t-32 70.5z" />
<glyph unicode="&#xf0;" horiz-adv-x="1038" d="M66 453q0 198 136 326t337 128q58 0 174 -35l2 5q-44 135 -150 272l-254 -133v86l209 106q-68 84 -119 111h-165v39l215 88h28q51 -22 172 -170l242 127v-86l-197 -100q105 -141 185 -325.5t80 -346.5q0 -268 -124.5 -415.5t-336.5 -147.5q-202 0 -318 126t-116 345z M252 504q0 -128 34.5 -231t102.5 -164.5t158 -61.5q104 0 176 113t72 317q0 155 -37 258q-33 38 -113 72.5t-158 34.5q-91 0 -163 -104.5t-72 -233.5z" />
<glyph unicode="&#xf1;" horiz-adv-x="1103" d="M68 0v47q69 4 93 17.5t40 44.5v553q0 34 -31 64.5t-98 47.5v39l266 96h22v-145q72 54 170.5 98.5t151.5 44.5q132 0 187 -72t55 -206v-533q20 -15 46.5 -23t47 -10.5t80.5 -7.5v-55h-465v49q68 6 90.5 19t34.5 43v477q0 85 -54 145t-137 60q-39 0 -99 -20.5t-108 -47.5 v-616q18 -33 40.5 -44t95.5 -18v-47h-428zM233 1094q5 27 21 64.5t41 80t64 71.5t81 29q21 0 46 -5.5t40 -10.5t38.5 -14.5t25.5 -10.5q88 -34 139 -34q33 19 54 46t40 68h45q-5 -27 -20.5 -64t-41 -79t-64.5 -71t-83 -29q-55 0 -147 39q-97 36 -139 36q-57 -34 -94 -116 h-46z" />
<glyph unicode="&#xf2;" horiz-adv-x="1019" d="M66 453q0 199 129 326.5t329 127.5q199 0 314.5 -127t115.5 -336q0 -202 -129.5 -332t-326.5 -130q-202 0 -317 126t-115 345zM252 504q0 -198 78 -327.5t213 -129.5q100 0 163.5 101.5t63.5 242.5q0 204 -79.5 327.5t-221.5 123.5q-90 0 -153.5 -103.5t-63.5 -234.5z M313 1362q16 49 54 71.5t86 22.5q12 0 18 -2l201 -414l-43 -26z" />
<glyph unicode="&#xf3;" horiz-adv-x="1019" d="M66 453q0 199 129 326.5t329 127.5q199 0 314.5 -127t115.5 -336q0 -202 -129.5 -332t-326.5 -130q-202 0 -317 126t-115 345zM252 504q0 -198 78 -327.5t213 -129.5q100 0 163.5 101.5t63.5 242.5q0 204 -79.5 327.5t-221.5 123.5q-90 0 -153.5 -103.5t-63.5 -234.5z M389 1040l201 414q6 2 20 2q46 0 85 -22.5t55 -71.5l-316 -348z" />
<glyph unicode="&#xf4;" horiz-adv-x="1019" d="M66 453q0 199 129 326.5t329 127.5q199 0 314.5 -127t115.5 -336q0 -202 -129.5 -332t-326.5 -130q-202 0 -317 126t-115 345zM217 1040l256 416h78l256 -416l-47 -26l-248 264l-250 -264zM252 504q0 -198 78 -327.5t213 -129.5q100 0 163.5 101.5t63.5 242.5 q0 204 -79.5 327.5t-221.5 123.5q-90 0 -153.5 -103.5t-63.5 -234.5z" />
<glyph unicode="&#xf5;" horiz-adv-x="1019" d="M66 453q0 199 129 326.5t329 127.5q199 0 314.5 -127t115.5 -336q0 -202 -129.5 -332t-326.5 -130q-202 0 -317 126t-115 345zM201 1094q5 27 21 64.5t41 80t64 71.5t81 29q14 0 30 -2.5t29 -6t28.5 -8.5t24.5 -8.5t22 -9t15 -6.5q88 -34 139 -34q34 19 55 45.5t40 68.5 h47q-5 -27 -20.5 -64t-41 -79t-64.5 -71t-83 -29q-58 0 -150 39q-97 36 -137 36q-63 -36 -94 -116h-47zM252 504q0 -198 78 -327.5t213 -129.5q100 0 163.5 101.5t63.5 242.5q0 204 -79.5 327.5t-221.5 123.5q-90 0 -153.5 -103.5t-63.5 -234.5z" />
<glyph unicode="&#xf6;" horiz-adv-x="1019" d="M66 453q0 199 129 326.5t329 127.5q199 0 314.5 -127t115.5 -336q0 -202 -129.5 -332t-326.5 -130q-202 0 -317 126t-115 345zM193 1202q0 41 31.5 74t76.5 33q46 0 76.5 -32.5t30.5 -74.5q0 -40 -30.5 -71t-76.5 -31q-45 0 -76.5 31.5t-31.5 70.5zM252 504 q0 -198 78 -327.5t213 -129.5q100 0 163.5 101.5t63.5 242.5q0 204 -79.5 327.5t-221.5 123.5q-90 0 -153.5 -103.5t-63.5 -234.5zM618 1202q0 41 31.5 74t77.5 33t76.5 -32.5t30.5 -74.5q0 -40 -30.5 -71t-76.5 -31t-77.5 31t-31.5 71z" />
<glyph unicode="&#xf7;" horiz-adv-x="1222" d="M164 438v107h895v-107h-895zM498 147q0 45 32.5 78t79.5 33t80 -33t33 -78q0 -46 -33 -78t-80 -32t-79.5 32t-32.5 78zM500 836q0 46 32.5 78t79.5 32t80 -32t33 -78q0 -45 -33 -78t-80 -33t-79.5 33t-32.5 78z" />
<glyph unicode="&#xf8;" horiz-adv-x="1019" d="M66 453q0 199 129 326.5t329 127.5q105 0 185 -39l92 164h73l-110 -192q91 -58 140.5 -161.5t49.5 -234.5q0 -202 -129.5 -332t-326.5 -130q-116 0 -193 38l-106 -184h-70l121 215q-88 60 -136 164t-48 238zM242 504q0 -201 80 -330l329 594q-71 74 -182 74 q-93 0 -160 -103.5t-67 -234.5zM362 125q72 -78 181 -78q103 0 170 101.5t67 242.5q0 205 -84 332z" />
<glyph unicode="&#xf9;" horiz-adv-x="1089" d="M47 811v41l279 51h22l-2 -606q0 -86 52 -146.5t139 -60.5q38 0 78 11.5t59.5 20.5t62.5 32v532q0 63 -33 88t-137 37v41l312 51h18v-723q0 -30 13 -52.5t28 -29.5l139 25v-51l-303 -99h-24l-13 140q-71 -51 -170 -93.5t-153 -42.5q-128 0 -180 74t-52 211v424 q0 53 -29 78.5t-106 46.5zM317 1362q16 49 54 71.5t84 22.5q14 0 20 -2l201 -414l-43 -26z" />
<glyph unicode="&#xfa;" horiz-adv-x="1089" d="M47 811v41l279 51h22l-2 -606q0 -86 52 -146.5t139 -60.5q38 0 78 11.5t59.5 20.5t62.5 32v532q0 63 -33 88t-137 37v41l312 51h18v-723q0 -30 13 -52.5t28 -29.5l139 25v-51l-303 -99h-24l-13 140q-71 -51 -170 -93.5t-153 -42.5q-128 0 -180 74t-52 211v424 q0 53 -29 78.5t-106 46.5zM432 1040l201 414q6 2 18 2q48 0 86 -22.5t54 -71.5l-316 -348z" />
<glyph unicode="&#xfb;" horiz-adv-x="1089" d="M47 811v41l279 51h22l-2 -606q0 -86 52 -146.5t139 -60.5q38 0 78 11.5t59.5 20.5t62.5 32v532q0 63 -33 88t-137 37v41l312 51h18v-723q0 -30 13 -52.5t28 -29.5l139 25v-51l-303 -99h-24l-13 140q-71 -51 -170 -93.5t-153 -42.5q-128 0 -180 74t-52 211v424 q0 53 -29 78.5t-106 46.5zM233 1040l256 416h76l258 -416l-47 -26l-248 264l-249 -264z" />
<glyph unicode="&#xfc;" horiz-adv-x="1089" d="M47 811v41l279 51h22l-2 -606q0 -86 52 -146.5t139 -60.5q38 0 78 11.5t59.5 20.5t62.5 32v532q0 63 -33 88t-137 37v41l312 51h18v-723q0 -30 13 -52.5t28 -29.5l139 25v-51l-303 -99h-24l-13 140q-71 -51 -170 -93.5t-153 -42.5q-128 0 -180 74t-52 211v424 q0 53 -29 78.5t-106 46.5zM207 1212q0 41 31 74t77 33t76.5 -32.5t30.5 -74.5q0 -40 -30.5 -71t-76.5 -31t-77 31t-31 71zM633 1212q0 41 31 74t77 33t76.5 -32.5t30.5 -74.5q0 -40 -30.5 -71t-76.5 -31t-77 31t-31 71z" />
<glyph unicode="&#xfd;" horiz-adv-x="954" d="M6 831v48h443v-48q-79 -4 -136 -36l230 -615l211 580q-10 26 -48.5 47t-95.5 24v48h369v-48q-111 -5 -158 -114l-256 -633q-35 -87 -108.5 -283.5t-98.5 -253.5q-13 -32 -42.5 -53.5t-69.5 -21.5q-45 0 -73 28.5t-28 65.5q0 39 27 65.5t74 26.5q24 0 67 -16l133 321 l-292 776q-31 87 -148 92zM383 1040l201 414q6 2 18 2q108 0 139 -94l-315 -348z" />
<glyph unicode="&#xfe;" horiz-adv-x="1064" d="M-8 -475q154 12 176 63v1618v26.5t-1.5 21t-4.5 19t-9.5 13.5t-16 13t-24.5 8.5t-34.5 8t-46.5 5.5v39l313 90h29v-29l-43 -71l-2 -576q76 56 159 93.5t150 37.5q72 0 136 -25.5t115.5 -75.5t82 -133t30.5 -188q0 -223 -141 -362t-389 -139q-14 0 -35 5.5t-34.5 10.5 t-41 16l-32.5 13l6 -459q27 -17 67.5 -24.5t128.5 -16.5v-53h-538v51zM332 219q23 -84 90.5 -125t140.5 -41q116 0 190 109.5t74 259.5q0 100 -37 183.5t-110 135.5t-168 52q-70 0 -180 -56v-518z" />
<glyph unicode="&#xff;" horiz-adv-x="954" d="M6 831v48h443v-48q-79 -4 -136 -36l230 -615l211 580q-10 26 -48.5 47t-95.5 24v48h369v-48q-111 -5 -158 -114l-256 -633q-35 -87 -108.5 -283.5t-98.5 -253.5q-13 -32 -42.5 -53.5t-69.5 -21.5q-45 0 -73 28.5t-28 65.5q0 39 27 65.5t74 26.5q24 0 67 -16l133 321 l-292 776q-31 87 -148 92zM195 1212q0 41 31.5 74t76.5 33q46 0 76.5 -32.5t30.5 -74.5q0 -40 -30.5 -71t-76.5 -31q-45 0 -76.5 31.5t-31.5 70.5zM621 1212q0 41 31 74t77 33t76.5 -32.5t30.5 -74.5q0 -40 -30.5 -71t-76.5 -31t-77 31t-31 71z" />
<glyph unicode="&#x152;" horiz-adv-x="1986" d="M80 629q0 196 91 351t251 240t360 85q96 0 250 -3.5t242 -3.5h371q71 0 122 15h39v-330h-43q-6 129 -61.5 176t-177.5 47h-295v-495h276q32 0 48 0.5t40.5 2t36 5.5t27.5 11t24 18t17.5 27t14.5 37.5t9 49.5h39v-416h-43q-3 36 -9.5 61t-12.5 43t-21 29.5t-26 18t-37.5 9 t-44 3t-57.5 0.5h-5h-276v-524l375 10q113 3 173.5 56.5t63.5 177.5h41v-330h-442q-129 0 -329 -11.5t-282 -11.5q-229 0 -399.5 82t-260 229t-89.5 341zM289 676q0 -306 167.5 -460.5t467.5 -154.5h118v1113q-20 22 -86 40.5t-143 18.5q-169 0 -288.5 -73t-177.5 -197 t-58 -287z" />
<glyph unicode="&#x153;" horiz-adv-x="1519" d="M66 453q0 200 126 327t322 127q202 0 336 -174q59 81 143 127.5t181 46.5q284 0 284 -297v-43l-536 4q-7 -56 -7 -104q0 -163 86 -263t216 -100q44 0 73.5 4.5t59.5 22t46.5 30.5t59.5 50l29 -49q-107 -97 -183.5 -137.5t-189.5 -40.5q-88 0 -168 44.5t-125 116.5 q-137 -161 -332 -161q-199 0 -310 125t-111 344zM252 502q0 -128 30.5 -229.5t93.5 -162.5t148 -61q96 0 161 97.5t65 248.5q0 204 -74 324.5t-209 120.5q-87 0 -151 -99.5t-64 -238.5zM932 627l362 4q0 83 -43.5 149t-107.5 66q-80 0 -136 -58t-75 -161z" />
<glyph unicode="&#x178;" horiz-adv-x="1234" d="M-49 1255v45h565v-45q-51 -3 -86.5 -11.5t-51 -17.5t-34.5 -24l324 -549l319 545q-24 18 -36.5 26t-48.5 18t-87 13v45h467v-45q-85 -4 -133.5 -35t-93.5 -106l-340 -559v-397q15 -34 39.5 -57t58 -33.5t62.5 -14.5t71 -6v-47h-653v47q200 8 237 82v408l-352 579 q-45 73 -94 104t-133 35zM315 1597q0 41 32.5 75t78.5 34q45 0 75.5 -33.5t30.5 -75.5q0 -40 -30.5 -72t-75.5 -32q-46 0 -78.5 32t-32.5 72zM772 1597q0 42 31.5 75.5t77.5 33.5q47 0 78.5 -33.5t31.5 -75.5q0 -40 -31 -72t-79 -32q-46 0 -77.5 32t-31.5 72z" />
<glyph unicode="&#x2c6;" horiz-adv-x="643" d="M29 1040l256 416h75l258 -416l-47 -26l-247 264l-250 -264z" />
<glyph unicode="&#x2dc;" horiz-adv-x="643" d="M4 1094q5 27 21 64.5t41 80t64 71.5t81 29q14 0 30 -2.5t29 -6t28.5 -8.5t24.5 -8.5t22 -9t15 -6.5q88 -34 140 -34q34 19 54.5 45t39.5 69h47q-5 -26 -21 -63.5t-41.5 -79.5t-64.5 -71t-82 -29q-57 0 -149 39q-97 36 -138 36q-63 -36 -94 -116h-47z" />
<glyph unicode="&#x2000;" horiz-adv-x="939" />
<glyph unicode="&#x2001;" horiz-adv-x="1878" />
<glyph unicode="&#x2002;" horiz-adv-x="939" />
<glyph unicode="&#x2003;" horiz-adv-x="1878" />
<glyph unicode="&#x2004;" horiz-adv-x="626" />
<glyph unicode="&#x2005;" horiz-adv-x="469" />
<glyph unicode="&#x2006;" horiz-adv-x="313" />
<glyph unicode="&#x2007;" horiz-adv-x="313" />
<glyph unicode="&#x2008;" horiz-adv-x="234" />
<glyph unicode="&#x2009;" horiz-adv-x="375" />
<glyph unicode="&#x200a;" horiz-adv-x="104" />
<glyph unicode="&#x2010;" horiz-adv-x="751" d="M86 416v133h578v-133h-578z" />
<glyph unicode="&#x2011;" horiz-adv-x="751" d="M86 416v133h578v-133h-578z" />
<glyph unicode="&#x2012;" horiz-adv-x="751" d="M86 416v133h578v-133h-578z" />
<glyph unicode="&#x2013;" d="M164 436v109h831v-109h-831z" />
<glyph unicode="&#x2014;" horiz-adv-x="1843" d="M315 436v109h1213v-109h-1213z" />
<glyph unicode="&#x2018;" horiz-adv-x="499" d="M109 1083q0 106 69 199t178 133l21 -39q-166 -85 -166 -280q20 10 53 10q113 0 113 -100q0 -41 -32.5 -71t-84.5 -30q-66 0 -108.5 47.5t-42.5 130.5z" />
<glyph unicode="&#x2019;" horiz-adv-x="499" d="M123 944q49 25 83.5 60t52 74t25 74t7.5 71q-22 -11 -53 -11q-113 0 -113 101q0 42 32 71t85 29q66 0 108.5 -47.5t42.5 -128.5q0 -106 -68.5 -198.5t-177.5 -133.5z" />
<glyph unicode="&#x201a;" horiz-adv-x="520" d="M123 -268q49 25 83.5 60t52 73.5t25 73.5t7.5 71q-20 -10 -53 -10q-113 0 -113 100q0 43 32 72t85 29q66 0 108.5 -47.5t42.5 -128.5q0 -106 -68.5 -198.5t-177.5 -133.5z" />
<glyph unicode="&#x201c;" horiz-adv-x="843" d="M109 1083q0 106 69 199t178 133l21 -39q-166 -85 -166 -280q20 10 51 10q55 0 81 -24.5t26 -75.5q0 -42 -30.5 -71.5t-82.5 -29.5q-66 0 -106.5 47.5t-40.5 130.5zM459 1083q0 106 70 199t180 133l20 -39q-168 -85 -168 -280q20 10 53 10q107 0 107 -100q0 -41 -31 -71 t-82 -30q-66 0 -107.5 47.5t-41.5 130.5z" />
<glyph unicode="&#x201d;" horiz-adv-x="843" d="M115 944q49 25 83.5 60t52 74t25 74t7.5 71q-22 -11 -52 -11q-55 0 -80.5 25t-25.5 76q0 43 30.5 71.5t82.5 28.5q66 0 106.5 -47t40.5 -129q0 -106 -68.5 -198.5t-177.5 -133.5zM465 944q50 25 85 60t52.5 74t25 74t7.5 71q-22 -11 -53 -11q-107 0 -107 101 q0 43 31 71.5t82 28.5q66 0 107.5 -47t41.5 -129q0 -106 -69 -198.5t-179 -133.5z" />
<glyph unicode="&#x201e;" horiz-adv-x="864" d="M115 -268q49 25 83.5 60t52 73.5t25 73.5t7.5 71q-20 -10 -52 -10q-55 0 -80.5 24.5t-25.5 75.5q0 43 30.5 72t82.5 29q66 0 106.5 -47t40.5 -129q0 -106 -68.5 -198.5t-177.5 -133.5zM465 -268q50 25 85 60t52.5 73.5t25 73.5t7.5 71q-20 -10 -53 -10q-107 0 -107 100 q0 43 31 72t82 29q66 0 107.5 -47t41.5 -129q0 -106 -69 -198.5t-179 -133.5z" />
<glyph unicode="&#x2022;" horiz-adv-x="1085" d="M356 616q0 76 54.5 129.5t130.5 53.5q75 0 128.5 -53.5t53.5 -129.5q0 -75 -54 -128.5t-130 -53.5q-75 0 -129 53.5t-54 128.5z" />
<glyph unicode="&#x2026;" horiz-adv-x="2095" d="M254 104q0 51 37 88t88 37q53 0 90 -36.5t37 -88.5t-37 -89.5t-90 -37.5q-51 0 -88 38t-37 89zM942 104q0 51 37 88t88 37q53 0 90 -36.5t37 -88.5t-37 -89.5t-90 -37.5q-51 0 -88 38t-37 89zM1632 104q0 51 36 88t87 37q53 0 90 -36.5t37 -88.5t-37 -89.5t-90 -37.5 q-51 0 -87 38t-36 89z" />
<glyph unicode="&#x202f;" horiz-adv-x="375" />
<glyph unicode="&#x2039;" horiz-adv-x="659" d="M106 442v76l353 326l41 -33l-230 -330l230 -331l-41 -33z" />
<glyph unicode="&#x203a;" horiz-adv-x="659" d="M160 150l227 331l-227 330l39 33l354 -326v-76l-354 -325z" />
<glyph unicode="&#x205f;" horiz-adv-x="469" />
<glyph unicode="&#x20ac;" d="M49 737v66h154q26 141 100 260t185.5 191.5t234.5 72.5q37 0 71 -3t55 -5t57 -11.5t47 -12.5t57 -17t57 -18v-334h-37q-11 146 -82 223q-49 52 -102 80t-129 28q-71 0 -129.5 -36.5t-97.5 -100.5t-63 -143.5t-34 -173.5h416v-66h-424q0 -12 -1 -43t-1 -47q0 -24 4 -86 h332v-65h-324q64 -445 373 -445q51 0 92.5 19t65.5 45q97 103 137 254l37 -11l-58 -307q-85 -30 -114 -39t-92 -19.5t-138 -10.5q-100 0 -187 42.5t-148.5 114.5t-103 163.5t-58.5 193.5h-150v65h142q-3 40 -3 82q0 51 3 94h-144z" />
<glyph unicode="&#x2122;" horiz-adv-x="1536" d="M129 1149v178h23q8 -29 57 -29h358q50 0 58 29h22v-178h-24q-1 49 -31.5 74.5t-79.5 27.5l-70 2v-419q21 -52 103 -52v-24h-316v24q32 0 64.5 10.5t40.5 28.5v432l-70 -2q-107 -3 -110 -102h-25zM659 758v24q27 1 52.5 14.5t33.5 26.5l23 303q1 13 2.5 34t2.5 35.5 t1 16.5v29q-7 13 -28 24.5t-48 12.5v22h209l27 -79l110 -330l134 321l36 88h189v-22q-28 -1 -49.5 -11.5t-28.5 -21.5v-24q0 -14 6 -95l19 -309q6 -12 31 -23t55 -12v-24h-281v24q29 1 56.5 12t33.5 23l-18 316l4 75h-8l-19 -65l-166 -385h-51l-141 413l-10 60h-9l2 -57 l-26 -351q6 -13 34 -26.5t56 -14.5v-24h-234z" />
<glyph unicode="&#x25fc;" horiz-adv-x="880" d="M0 0v881h881v-881h-881z" />
</font>
</defs>
</svg>
